<?xml version="1.0" encoding="utf-8"?>
<!-- Generator: Adobe Illustrator 21.0.2, SVG Export Plug-In . SVG Version: 6.00 Build 0)  -->
<svg version="1.1" id="circulos" xmlns="http://www.w3.org/2000/svg" xmlns:xlink="http://www.w3.org/1999/xlink" x="0px" y="0px"
	 viewBox="0 0 3052 2062" style="enable-background:new 0 0 3052 2062;" xml:space="preserve">
<style type="text/css">
	.st0{opacity:0.55;fill:url(#SVGID_1_);}
	.st1{opacity:0.41;}
	.st2{fill:#6D6E71;}
	.st3{opacity:0.5;}
	.st4{fill:url(#SVGID_2_);}
	.st5{fill:url(#SVGID_3_);}
	.st6{fill:#FFFFFF;}
	.st7{fill:url(#SVGID_4_);}
	.st8{opacity:0.75;}
	.st9{fill:url(#SVGID_5_);}
	.st10{fill:url(#SVGID_6_);}
	.st11{fill:url(#SVGID_7_);}
	.st12{fill:url(#SVGID_8_);}
	.st13{fill:url(#SVGID_9_);}
	.st14{fill:url(#SVGID_10_);}
	.st15{fill:url(#SVGID_11_);}
	.st16{fill:url(#SVGID_12_);}
	.st17{fill:url(#SVGID_13_);}
</style>
<radialGradient id="SVGID_1_" cx="609.3912" cy="-764.1348" r="240.0538" gradientTransform="matrix(2.8383 0 0 0.1866 -179.9437 2088.2942)" gradientUnits="userSpaceOnUse">
	<stop  offset="0" style="stop-color:#A7A9AC"/>
	<stop  offset="0.1771" style="stop-color:#C6C8CA"/>
	<stop  offset="0.3623" style="stop-color:#DFE0E1"/>
	<stop  offset="0.556" style="stop-color:#F1F1F2"/>
	<stop  offset="0.7618" style="stop-color:#FCFCFC"/>
	<stop  offset="1" style="stop-color:#FFFFFF"/>
</radialGradient>
<path class="st0" d="M1549.7,1900.9c-353.3,0-643.7,17.7-677.8,40.3v9c34.2,22.6,324.6,40.3,677.8,40.3c340.2,0,622.2-16.4,673-37.9
	v-13.9C2171.9,1917.3,1889.9,1900.9,1549.7,1900.9z"/>
<g class="st1">
	<g>
		<g>
			<path class="st2" d="M1254.2,767.4c-139.2,121.3-189.1,338.8-116.7,508.6c-7.6,3.2-15.2,6.5-22.7,9.7
				c-76.4-179.3-23.7-408.9,123.2-536.9C1243.4,755,1248.8,761.2,1254.2,767.4z"/>
			<g>
				<path class="st2" d="M1201.9,1354.8l-0.9,0.7l-198.4,145.4l-0.7-0.9c-80.1-109.5-124.5-250.1-124.9-396
					c-0.5-145.9,43-286.8,122.4-396.8l0.7-0.9l200.3,144.8l-0.7,0.9c-103.5,143.4-102.8,359.2,1.6,501.9L1201.9,1354.8z
					 M1003,1497.8l195.7-143.4c-50.6-69.6-78.6-158.7-78.9-251.1c-0.3-92.4,27.1-181.7,77.3-251.6l-196.6-142.2
					C838.4,934.9,839.5,1273.4,1003,1497.8z"/>
				<path class="st2" d="M1504.3,1821.6l-1.1-0.1c-151-8.9-298.5-66.6-415.4-162.6c-116.9-96-202.2-229.5-240.2-375.9l-0.3-1.1
					l118.5-30.8l235.9-61.3l0.3,1.1c37.1,142.3,175.7,256.2,322.6,264.9l1.1,0.1l-2.9,49.4L1504.3,1821.6z M850,1283.6
					c38.1,145.5,123,278.1,239.2,373.6c116.2,95.4,262.9,152.9,413,162l21.1-361.1c-147-9.2-285.6-123.1-323.2-265.4L850,1283.6z"/>
				<path class="st2" d="M1960.7,537.7l-0.7,0.9l-145.5,198.3l-0.9-0.7c-125.8-92.2-300-112.8-443.8-52.5
					c-143.8,60.4-251.1,199.2-273.4,353.5l-0.2,1.1l-244.6-35.2l0.2-1.1c16.8-116.3,65.6-229.4,141.2-327.2
					c75.6-97.8,172.8-173.5,281.1-219c108.4-45.4,230.5-61.7,353.2-47.2C1750,423.2,1865,467.5,1959.7,537L1960.7,537.7z
					 M1814,733.8l143.5-195.6c-193.6-141.4-461.4-172.9-682.5-80.2c-221.1,92.9-386.1,306.1-420.8,543.3l240.2,34.6
					c11.1-75.3,42.8-148.4,91.7-211.7c49.2-63.6,112.4-112.8,182.9-142.5c70.5-29.5,149.9-40.2,229.8-30.7
					C1678.1,660.3,1752.5,689,1814,733.8z"/>
				<path class="st2" d="M1982.2,1542.9l-0.8,0.8c-74.1,73.1-169.2,126.8-274.9,155.4c-105.7,28.5-214.9,30-315.7,4.1
					c-100.8-26-195.8-79.8-274.7-155.8c-78.9-76-136.2-168.8-166-268.6l-0.3-1.1l200.8-59.7l0.3,1.1
					c40.4,135.6,155,245.9,291.9,281.2c137,35.1,290.6-6.4,391.3-105.7l0.8-0.8L1982.2,1542.9z M952.6,1279.2
					c61,203.4,233.1,368.9,438.7,421.8c205.7,52.7,436.2-9.4,587.7-158.1L1835,1397c-49.3,48.3-112.3,83.8-182.3,102.7
					c-70.4,19-143.2,20-210.3,2.7c-67.2-17.3-130.4-53.2-183-103.8c-52.2-50.3-90.3-111.8-110.2-177.9L952.6,1279.2z"/>
				<path class="st2" d="M1941.4,385.8l-0.5,1l-200.4,363.4l-1-0.5c-70.7-38.9-153.8-56-234-48l-1.1,0.1l-0.1-1.1l-41-412.9l1.1-0.1
					c163.3-16.2,332.3,18.5,476.1,97.7L1941.4,385.8z M1739.6,747.1l198.7-360.4c-142.8-78.4-310.6-112.9-472.7-97l40.7,409.6
					C1586.4,691.5,1669.1,708.5,1739.6,747.1z"/>
				<path class="st2" d="M1448,779.6l-1.1,0.3c-17.7,5.4-35.1,12.4-51.7,20.6l-1,0.5l-0.5-1l-185-371.5l1-0.5
					c36.9-18.4,75.8-33.9,115.6-46.1l1.1-0.3l0.3,1.1L1448,779.6z M1395.2,798c16-7.9,32.8-14.6,50-19.9l-120.3-393.6
					c-38.9,12-77,27.2-113.2,45.1L1395.2,798z"/>
			</g>
			<path class="st2" d="M1221,1210.7c0.6,1.6,1.1,3.3,1.7,4.9c-111.5,39.3-222.9,78.6-334.4,117.9c-1.2-3.3-2.3-6.7-3.4-10
				C996.9,1285.9,1109,1248.3,1221,1210.7z"/>
			<path class="st2" d="M1252,845.8c-1.3,1.5-2.6,3-3.9,4.5c-60-50.8-120-101.6-180-152.3c2.1-2.4,4.1-4.8,6.2-7.2
				C1133.5,742.5,1192.7,794.1,1252,845.8z"/>
			<path class="st2" d="M1663.8,761.6c-1.7-0.6-3.5-1.2-5.2-1.8c48.5-146.4,97-292.8,145.5-439.2c4,1.3,7.9,2.7,11.9,4
				C1765.3,470.3,1714.5,615.9,1663.8,761.6z"/>
			<path class="st2" d="M2039.6,1074.8c-12.2-220.4-194.3-424.2-411.9-461.1c-217.7-36.6-456.6,96.2-540.4,300.4
				c-83.6,204.3-6.6,466.5,174.1,593.3c180.9,126.5,453.6,109.1,617-39.2c0.1,0.1,0.3,0.3,0.4,0.4
				c-163.6,148.5-436.7,165.9-617.8,39.3c-180.9-126.9-257.9-389.4-174.3-594c84-204.4,323.1-337.3,541-300.7
				c217.9,36.9,400.2,241,412.4,461.6C2039.9,1074.8,2039.7,1074.8,2039.6,1074.8z"/>
			<path class="st2" d="M1227,1374.1c1.5,1.7,2.9,3.4,4.4,5.1c-0.5,0.4-0.9,0.8-1.4,1.2c-1.5-1.7-3-3.4-4.4-5.1
				C1226.1,1374.9,1226.5,1374.5,1227,1374.1z"/>
			<path class="st2" d="M1219.8,1365.4c1.4,1.7,2.8,3.5,4.3,5.2c-0.5,0.4-0.9,0.8-1.4,1.2c-1.4-1.7-2.9-3.5-4.3-5.2
				C1218.8,1366.2,1219.3,1365.8,1219.8,1365.4z"/>
			<path class="st2" d="M1212.8,1356.6c1.4,1.8,2.7,3.5,4.1,5.3c-0.5,0.4-0.9,0.7-1.4,1.1c-1.4-1.8-2.8-3.5-4.1-5.3
				C1211.9,1357.3,1212.3,1356.9,1212.8,1356.6z"/>
			<path class="st2" d="M1206.1,1347.5c1.3,1.8,2.6,3.6,4,5.4c-0.5,0.4-1,0.7-1.5,1.1c-1.3-1.8-2.7-3.6-4-5.4
				C1205.1,1348.2,1205.6,1347.9,1206.1,1347.5z"/>
			<path class="st2" d="M1199.6,1338.3c1.3,1.8,2.5,3.7,3.8,5.5c-0.5,0.3-1,0.7-1.5,1c-1.3-1.8-2.6-3.7-3.8-5.5
				C1198.6,1339,1199.1,1338.7,1199.6,1338.3z"/>
			<path class="st2" d="M1193.3,1328.9c1.2,1.9,2.4,3.7,3.7,5.6c-0.5,0.3-1,0.7-1.5,1c-1.2-1.9-2.5-3.7-3.7-5.6
				C1192.3,1329.6,1192.8,1329.2,1193.3,1328.9z"/>
			<path class="st2" d="M1187.4,1319.4c1.2,1.9,2.3,3.8,3.5,5.7c-0.5,0.3-1,0.6-1.5,1c-1.2-1.9-2.4-3.8-3.5-5.7
				C1186.3,1320,1186.8,1319.7,1187.4,1319.4z"/>
			<path class="st2" d="M1181.6,1309.6c1.1,1.9,2.2,3.9,3.4,5.8c-0.5,0.3-1,0.6-1.6,0.9c-1.1-1.9-2.3-3.9-3.4-5.8
				C1180.6,1310.2,1181.1,1309.9,1181.6,1309.6z"/>
			<path class="st2" d="M1176.2,1299.8c1.1,2,2.1,3.9,3.2,5.9c-0.5,0.3-1.1,0.6-1.6,0.9c-1.1-2-2.2-3.9-3.2-5.9
				C1175.1,1300.3,1175.6,1300.1,1176.2,1299.8z"/>
			<path class="st2" d="M1171,1289.8c1,2,2,4,3.1,6c-0.5,0.3-1.1,0.6-1.6,0.8c-1-2-2.1-4-3.1-6
				C1169.9,1290.3,1170.4,1290,1171,1289.8z"/>
			<path class="st2" d="M1166,1279.6c1,2,1.9,4,2.9,6c-0.5,0.3-1.1,0.5-1.6,0.8c-1-2-1.9-4-2.9-6.1
				C1165,1280.1,1165.5,1279.9,1166,1279.6z"/>
			<path class="st2" d="M1161.4,1269.3c0.9,2,1.8,4.1,2.7,6.1c-0.5,0.3-1.1,0.5-1.6,0.8c-0.9-2-1.8-4.1-2.7-6.1
				C1160.3,1269.8,1160.8,1269.6,1161.4,1269.3z"/>
			<path class="st2" d="M1157,1258.9c0.8,2.1,1.7,4.1,2.6,6.2c-0.6,0.2-1.1,0.5-1.7,0.7c-0.9-2.1-1.7-4.1-2.6-6.2
				C1155.9,1259.4,1156.5,1259.2,1157,1258.9z"/>
			<path class="st2" d="M1152.9,1248.4c0.8,2.1,1.6,4.2,2.4,6.3c-0.6,0.2-1.1,0.4-1.7,0.7c-0.8-2.1-1.6-4.2-2.4-6.3
				C1151.8,1248.9,1152.4,1248.6,1152.9,1248.4z"/>
			<path class="st2" d="M1149.1,1237.8c0.7,2.1,1.5,4.2,2.2,6.3c-0.6,0.2-1.1,0.4-1.7,0.6c-0.8-2.1-1.5-4.2-2.2-6.3
				C1148,1238.2,1148.6,1238,1149.1,1237.8z"/>
			<path class="st2" d="M1145.6,1227.1c0.7,2.1,1.3,4.3,2.1,6.4c-0.6,0.2-1.1,0.4-1.7,0.6c-0.7-2.1-1.4-4.3-2.1-6.4
				C1144.5,1227.5,1145,1227.3,1145.6,1227.1z"/>
			<path class="st2" d="M1142.4,1216.3c0.6,2.1,1.2,4.3,1.9,6.4c-0.6,0.2-1.2,0.3-1.7,0.5c-0.7-2.1-1.3-4.3-1.9-6.5
				C1141.2,1216.6,1141.8,1216.5,1142.4,1216.3z"/>
			<path class="st2" d="M1139.5,1205.4c0.6,2.2,1.1,4.3,1.7,6.5c-0.6,0.2-1.2,0.3-1.7,0.5c-0.6-2.2-1.2-4.3-1.7-6.5
				C1138.3,1205.7,1138.9,1205.5,1139.5,1205.4z"/>
			<path class="st2" d="M1136.8,1194.4c0.5,2.2,1,4.4,1.5,6.5c-0.6,0.1-1.2,0.3-1.8,0.4c-0.5-2.2-1-4.4-1.5-6.6
				C1135.6,1194.7,1136.2,1194.6,1136.8,1194.4z"/>
			<path class="st2" d="M1134.5,1183.4c0.4,2.2,0.9,4.4,1.4,6.6c-0.6,0.1-1.2,0.3-1.8,0.4c-0.5-2.2-0.9-4.4-1.4-6.6
				C1133.3,1183.6,1133.9,1183.5,1134.5,1183.4z"/>
			<path class="st2" d="M1132.4,1172.3c0.4,2.2,0.8,4.4,1.2,6.6c-0.6,0.1-1.2,0.2-1.8,0.3c-0.4-2.2-0.8-4.4-1.2-6.6
				C1131.2,1172.5,1131.8,1172.4,1132.4,1172.3z"/>
			<path class="st2" d="M1130.7,1161.2c0.3,2.2,0.6,4.4,1,6.6c-0.6,0.1-1.2,0.2-1.8,0.3c-0.4-2.2-0.7-4.4-1-6.6
				C1129.5,1161.3,1130.1,1161.3,1130.7,1161.2z"/>
			<path class="st2" d="M1129.2,1150c0.3,2.2,0.5,4.4,0.8,6.6c-0.6,0.1-1.2,0.2-1.8,0.2c-0.3-2.2-0.6-4.4-0.8-6.7
				C1128,1150.1,1128.6,1150.1,1129.2,1150z"/>
			<path class="st2" d="M1128.1,1138.8c0.2,2.2,0.4,4.5,0.6,6.7c-0.6,0.1-1.2,0.1-1.8,0.2c-0.2-2.2-0.5-4.5-0.6-6.7
				C1126.9,1138.9,1127.5,1138.8,1128.1,1138.8z"/>
			<path class="st2" d="M1127.2,1127.5c0.1,2.2,0.3,4.5,0.5,6.7c-0.6,0-1.2,0.1-1.8,0.1c-0.2-2.2-0.3-4.5-0.5-6.7
				C1126,1127.6,1126.6,1127.5,1127.2,1127.5z"/>
			<path class="st2" d="M1126.7,1116.3c0.1,2.2,0.2,4.5,0.3,6.7c-0.6,0-1.2,0.1-1.8,0.1c-0.1-2.2-0.2-4.5-0.3-6.7
				C1125.5,1116.3,1126.1,1116.3,1126.7,1116.3z"/>
			<path class="st2" d="M1126.5,1105c0,2.2,0.1,4.5,0.1,6.7c-0.6,0-1.2,0-1.8,0c0-2.2-0.1-4.5-0.1-6.7
				C1125.3,1105,1125.9,1105,1126.5,1105z"/>
			<path class="st2" d="M1126.5,1093.7c0,2.2-0.1,4.5-0.1,6.7c-0.6,0-1.2,0-1.8,0c0-2.2,0-4.5,0.1-6.7
				C1125.3,1093.7,1125.9,1093.7,1126.5,1093.7z"/>
			<path class="st2" d="M1126.9,1082.4c-0.1,2.2-0.2,4.5-0.3,6.7c-0.6,0-1.2,0-1.8-0.1c0.1-2.2,0.2-4.5,0.3-6.7
				C1125.7,1082.4,1126.3,1082.4,1126.9,1082.4z"/>
			<path class="st2" d="M1127.6,1071.2c-0.2,2.2-0.3,4.5-0.4,6.7c-0.6,0-1.2-0.1-1.8-0.1c0.1-2.2,0.3-4.5,0.4-6.7
				C1126.4,1071.1,1127,1071.1,1127.6,1071.2z"/>
			<path class="st2" d="M1128.6,1059.9c-0.2,2.2-0.4,4.4-0.6,6.7c-0.6,0-1.2-0.1-1.8-0.2c0.2-2.2,0.4-4.5,0.6-6.7
				C1127.4,1059.8,1128,1059.9,1128.6,1059.9z"/>
			<path class="st2" d="M1129.8,1048.7c-0.3,2.2-0.6,4.4-0.8,6.6c-0.6-0.1-1.2-0.1-1.8-0.2c0.2-2.2,0.5-4.5,0.8-6.7
				C1128.6,1048.6,1129.2,1048.6,1129.8,1048.7z"/>
			<path class="st2" d="M1131.4,1037.6c-0.4,2.2-0.7,4.4-1,6.6c-0.6-0.1-1.2-0.2-1.8-0.3c0.3-2.2,0.6-4.4,1-6.7
				C1130.2,1037.4,1130.8,1037.5,1131.4,1037.6z"/>
			<path class="st2" d="M1133.3,1026.4c-0.4,2.2-0.8,4.4-1.2,6.6c-0.6-0.1-1.2-0.2-1.8-0.3c0.4-2.2,0.8-4.4,1.2-6.6
				C1132.1,1026.2,1132.7,1026.3,1133.3,1026.4z"/>
			<path class="st2" d="M1135.5,1015.4c-0.5,2.2-0.9,4.4-1.3,6.6c-0.6-0.1-1.2-0.2-1.8-0.3c0.4-2.2,0.9-4.4,1.3-6.6
				C1134.3,1015.1,1134.9,1015.2,1135.5,1015.4z"/>
			<path class="st2" d="M1138,1004.4c-0.5,2.2-1,4.3-1.5,6.5c-0.6-0.1-1.2-0.3-1.8-0.4c0.5-2.2,1-4.4,1.5-6.6
				C1136.8,1004.1,1137.4,1004.2,1138,1004.4z"/>
			<path class="st2" d="M1140.7,993.4c-0.6,2.2-1.1,4.3-1.7,6.5c-0.6-0.1-1.2-0.3-1.8-0.4c0.5-2.2,1.1-4.3,1.7-6.5
				C1139.6,993.1,1140.2,993.3,1140.7,993.4z"/>
			<path class="st2" d="M1143.8,982.6c-0.6,2.1-1.3,4.3-1.9,6.4c-0.6-0.2-1.2-0.3-1.7-0.5c0.6-2.2,1.2-4.3,1.9-6.5
				C1142.7,982.2,1143.2,982.4,1143.8,982.6z"/>
			<path class="st2" d="M1147.2,971.8c-0.7,2.1-1.4,4.3-2,6.4c-0.6-0.2-1.2-0.4-1.7-0.5c0.7-2.1,1.3-4.3,2-6.4
				C1146,971.4,1146.6,971.6,1147.2,971.8z"/>
			<path class="st2" d="M1150.8,961.1c-0.8,2.1-1.5,4.2-2.2,6.3c-0.6-0.2-1.1-0.4-1.7-0.6c0.7-2.1,1.5-4.3,2.2-6.4
				C1149.7,960.7,1150.2,960.9,1150.8,961.1z"/>
			<path class="st2" d="M1154.7,950.6c-0.8,2.1-1.6,4.2-2.4,6.3c-0.6-0.2-1.1-0.4-1.7-0.6c0.8-2.1,1.6-4.2,2.4-6.3
				C1153.6,950.1,1154.2,950.4,1154.7,950.6z"/>
			<path class="st2" d="M1159,940.1c-0.9,2.1-1.7,4.1-2.5,6.2c-0.6-0.2-1.1-0.5-1.7-0.7c0.8-2.1,1.7-4.2,2.5-6.2
				C1157.9,939.6,1158.4,939.9,1159,940.1z"/>
			<path class="st2" d="M1163.5,929.8c-0.9,2-1.8,4.1-2.7,6.1c-0.6-0.2-1.1-0.5-1.7-0.7c0.9-2.1,1.8-4.1,2.7-6.2
				C1162.4,929.3,1162.9,929.5,1163.5,929.8z"/>
			<path class="st2" d="M1168.2,919.5c-1,2-1.9,4-2.9,6.1c-0.5-0.3-1.1-0.5-1.6-0.8c0.9-2,1.9-4.1,2.9-6.1
				C1167.2,919,1167.7,919.3,1168.2,919.5z"/>
			<path class="st2" d="M1173.3,909.5c-1,2-2,4-3,6c-0.5-0.3-1.1-0.5-1.6-0.8c1-2,2-4,3-6C1172.2,908.9,1172.7,909.2,1173.3,909.5z"
				/>
			<path class="st2" d="M1178.6,899.5c-1.1,2-2.1,3.9-3.2,5.9c-0.5-0.3-1.1-0.6-1.6-0.8c1.1-2,2.1-4,3.2-5.9
				C1177.5,898.9,1178.1,899.2,1178.6,899.5z"/>
			<path class="st2" d="M1184.2,889.7c-1.1,1.9-2.2,3.9-3.4,5.8c-0.5-0.3-1.1-0.6-1.6-0.9c1.1-2,2.2-3.9,3.4-5.8
				C1183.1,889.1,1183.7,889.4,1184.2,889.7z"/>
			<path class="st2" d="M1190,880.1c-1.2,1.9-2.4,3.8-3.5,5.7c-0.5-0.3-1-0.6-1.6-0.9c1.2-1.9,2.3-3.8,3.5-5.7
				C1189,879.4,1189.5,879.7,1190,880.1z"/>
			<path class="st2" d="M1196.1,870.6c-1.2,1.9-2.5,3.7-3.7,5.6c-0.5-0.3-1-0.7-1.5-1c1.2-1.9,2.4-3.8,3.7-5.6
				C1195.1,869.9,1195.6,870.2,1196.1,870.6z"/>
			<path class="st2" d="M1202.5,861.3c-1.3,1.8-2.5,3.7-3.8,5.5c-0.5-0.3-1-0.7-1.5-1c1.3-1.9,2.5-3.7,3.8-5.5
				C1201.5,860.6,1202,860.9,1202.5,861.3z"/>
			<path class="st2" d="M1209.1,852.1c-1.3,1.8-2.6,3.6-4,5.4c-0.5-0.4-1-0.7-1.5-1.1c1.3-1.8,2.6-3.6,4-5.4
				C1208.1,851.4,1208.6,851.8,1209.1,852.1z"/>
			<path class="st2" d="M1215.9,843.1c-1.4,1.8-2.7,3.5-4.1,5.3c-0.5-0.4-1-0.7-1.4-1.1c1.4-1.8,2.7-3.6,4.1-5.3
				C1215,842.4,1215.5,842.8,1215.9,843.1z"/>
			<path class="st2" d="M1223,834.4c-1.4,1.7-2.8,3.4-4.2,5.2c-0.5-0.4-0.9-0.8-1.4-1.1c1.4-1.8,2.8-3.5,4.3-5.2
				C1222.1,833.6,1222.6,834,1223,834.4z"/>
			<path class="st2" d="M1600.3,686.7c-2.2-0.3-4.4-0.6-6.6-0.8c0.1-0.6,0.1-1.2,0.2-1.8c2.2,0.3,4.4,0.5,6.7,0.8
				C1600.4,685.5,1600.3,686.1,1600.3,686.7z"/>
			<path class="st2" d="M1612.4,688.5c-2.2-0.4-4.4-0.7-6.6-1c0.1-0.6,0.2-1.2,0.3-1.8c2.2,0.3,4.4,0.7,6.7,1
				C1612.6,687.3,1612.5,687.9,1612.4,688.5z"/>
			<path class="st2" d="M1624.6,690.7c-2.2-0.4-4.4-0.8-6.6-1.2c0.1-0.6,0.2-1.2,0.3-1.8c2.2,0.4,4.4,0.8,6.6,1.2
				C1624.8,689.5,1624.7,690.1,1624.6,690.7z"/>
			<path class="st2" d="M1636.6,693.2c-2.2-0.5-4.4-1-6.5-1.4c0.1-0.6,0.2-1.2,0.4-1.8c2.2,0.5,4.4,0.9,6.6,1.4
				C1636.9,692,1636.8,692.6,1636.6,693.2z"/>
			<path class="st2" d="M1648.6,696c-2.2-0.5-4.3-1.1-6.5-1.6c0.1-0.6,0.3-1.2,0.4-1.8c2.2,0.5,4.4,1,6.5,1.6
				C1648.9,694.9,1648.8,695.5,1648.6,696z"/>
			<path class="st2" d="M1660.5,699.2c-2.1-0.6-4.3-1.2-6.5-1.8c0.2-0.6,0.3-1.2,0.5-1.7c2.2,0.6,4.3,1.2,6.5,1.8
				C1660.8,698.1,1660.7,698.7,1660.5,699.2z"/>
			<path class="st2" d="M1672.3,702.8c-2.1-0.7-4.3-1.3-6.4-2c0.2-0.6,0.3-1.2,0.5-1.7c2.1,0.6,4.3,1.3,6.4,2
				C1672.7,701.7,1672.5,702.2,1672.3,702.8z"/>
			<path class="st2" d="M1684,706.7c-2.1-0.7-4.2-1.5-6.3-2.2c0.2-0.6,0.4-1.1,0.6-1.7c2.1,0.7,4.2,1.4,6.4,2.2
				C1684.4,705.6,1684.2,706.2,1684,706.7z"/>
			<path class="st2" d="M1695.5,711c-2.1-0.8-4.2-1.6-6.3-2.4c0.2-0.6,0.4-1.1,0.6-1.7c2.1,0.8,4.2,1.6,6.3,2.4
				C1696,709.8,1695.8,710.4,1695.5,711z"/>
			<path class="st2" d="M1707,715.6c-2.1-0.9-4.1-1.7-6.2-2.5c0.2-0.6,0.4-1.1,0.7-1.7c2.1,0.8,4.2,1.7,6.2,2.5
				C1707.5,714.5,1707.2,715,1707,715.6z"/>
			<path class="st2" d="M1718.3,720.5c-2-0.9-4.1-1.8-6.1-2.7c0.2-0.6,0.5-1.1,0.7-1.7c2.1,0.9,4.1,1.8,6.1,2.7
				C1718.8,719.4,1718.5,719.9,1718.3,720.5z"/>
			<path class="st2" d="M1729.4,725.7c-2-1-4-1.9-6-2.9c0.3-0.5,0.5-1.1,0.8-1.6c2,1,4.1,1.9,6.1,2.9
				C1730,724.7,1729.7,725.2,1729.4,725.7z"/>
			<path class="st2" d="M1740.4,731.3c-2-1-4-2.1-6-3.1c0.3-0.5,0.5-1.1,0.8-1.6c2,1,4,2,6,3.1
				C1741,730.3,1740.7,730.8,1740.4,731.3z"/>
			<path class="st2" d="M1751.2,737.2c-1.9-1.1-3.9-2.2-5.9-3.2c0.3-0.5,0.6-1.1,0.9-1.6c2,1.1,3.9,2.2,5.9,3.3
				C1751.8,736.2,1751.5,736.7,1751.2,737.2z"/>
			<path class="st2" d="M1761.9,743.4c-1.9-1.2-3.8-2.3-5.8-3.4c0.3-0.5,0.6-1,0.9-1.6c1.9,1.1,3.9,2.3,5.8,3.4
				C1762.5,742.4,1762.2,742.9,1761.9,743.4z"/>
			<path class="st2" d="M1772.3,750c-1.9-1.2-3.8-2.4-5.7-3.6c0.3-0.5,0.6-1,1-1.5c1.9,1.2,3.8,2.4,5.7,3.6
				C1773,749,1772.6,749.5,1772.3,750z"/>
			<path class="st2" d="M1782.6,756.8c-1.8-1.3-3.7-2.5-5.5-3.8c0.3-0.5,0.7-1,1-1.5c1.9,1.2,3.7,2.5,5.6,3.8
				C1783.2,755.8,1782.9,756.3,1782.6,756.8z"/>
			<path class="st2" d="M1792.6,763.9c-1.8-1.3-3.6-2.6-5.4-3.9c0.3-0.5,0.7-1,1-1.5c1.8,1.3,3.7,2.6,5.5,3.9
				C1793.3,763,1793,763.4,1792.6,763.9z"/>
			<path class="st2" d="M1802.4,771.3c-1.8-1.4-3.5-2.7-5.3-4.1c0.4-0.5,0.7-1,1.1-1.4c1.8,1.4,3.6,2.7,5.3,4.1
				C1803.2,770.4,1802.8,770.9,1802.4,771.3z"/>
			<path class="st2" d="M1812.1,779.1c-1.7-1.4-3.5-2.8-5.2-4.2c0.4-0.5,0.8-0.9,1.1-1.4c1.8,1.4,3.5,2.8,5.2,4.2
				C1812.8,778.1,1812.4,778.6,1812.1,779.1z"/>
			<path class="st2" d="M1824.7,783.3c-1.7-1.5-3.4-3-5.1-4.4c0.4-0.5,0.8-0.9,1.2-1.4c1.7,1.5,3.4,3,5.2,4.5
				C1825.5,782.4,1825.1,782.8,1824.7,783.3z"/>
			<path class="st2" d="M1833.9,791.6c-1.7-1.5-3.3-3.1-5-4.6c0.4-0.4,0.8-0.9,1.2-1.3c1.7,1.5,3.4,3.1,5,4.6
				C1834.7,790.7,1834.3,791.1,1833.9,791.6z"/>
			<path class="st2" d="M1842.8,800.1c-1.6-1.6-3.2-3.2-4.9-4.7c0.4-0.4,0.8-0.9,1.2-1.3c1.6,1.6,3.3,3.1,4.9,4.7
				C1843.7,799.3,1843.2,799.7,1842.8,800.1z"/>
			<path class="st2" d="M1851.5,808.9c-1.6-1.6-3.1-3.2-4.7-4.9c0.4-0.4,0.9-0.8,1.3-1.3c1.6,1.6,3.2,3.2,4.7,4.9
				C1852.3,808.1,1851.9,808.5,1851.5,808.9z"/>
			<path class="st2" d="M1859.9,818c-1.5-1.7-3-3.3-4.6-5c0.4-0.4,0.9-0.8,1.3-1.2c1.6,1.7,3.1,3.3,4.6,5
				C1860.8,817.2,1860.3,817.6,1859.9,818z"/>
			<path class="st2" d="M1868,827.3c-1.5-1.7-2.9-3.4-4.4-5.1c0.5-0.4,0.9-0.8,1.4-1.2c1.5,1.7,3,3.4,4.5,5.2
				C1868.9,826.5,1868.5,826.9,1868,827.3z"/>
			<path class="st2" d="M1875.9,836.8c-1.4-1.8-2.8-3.5-4.3-5.3c0.5-0.4,0.9-0.8,1.4-1.2c1.4,1.7,2.9,3.5,4.3,5.3
				C1876.8,836,1876.4,836.4,1875.9,836.8z"/>
			<path class="st2" d="M1883.5,846.5c-1.4-1.8-2.7-3.6-4.1-5.4c0.5-0.4,1-0.7,1.4-1.1c1.4,1.8,2.8,3.6,4.1,5.4
				C1884.4,845.8,1884,846.2,1883.5,846.5z"/>
			<path class="st2" d="M1890.8,856.5c-1.3-1.8-2.6-3.7-4-5.5c0.5-0.4,1-0.7,1.5-1.1c1.3,1.8,2.7,3.7,4,5.5
				C1891.8,855.8,1891.3,856.1,1890.8,856.5z"/>
			<path class="st2" d="M1897.8,866.7c-1.3-1.9-2.5-3.7-3.8-5.6c0.5-0.3,1-0.7,1.5-1c1.3,1.9,2.6,3.7,3.8,5.6
				C1898.8,866,1898.3,866.3,1897.8,866.7z"/>
			<path class="st2" d="M1904.5,877c-1.2-1.9-2.4-3.8-3.6-5.7c0.5-0.3,1-0.7,1.5-1c1.2,1.9,2.5,3.8,3.7,5.7
				C1905.5,876.4,1905,876.7,1904.5,877z"/>
			<path class="st2" d="M1910.9,887.6c-1.1-1.9-2.3-3.9-3.5-5.8c0.5-0.3,1-0.6,1.5-0.9c1.2,1.9,2.3,3.9,3.5,5.8
				C1911.9,887,1911.4,887.3,1910.9,887.6z"/>
			<path class="st2" d="M1917,898.3c-1.1-2-2.2-4-3.3-5.9c0.5-0.3,1-0.6,1.6-0.9c1.1,2,2.2,4,3.3,5.9
				C1918,897.8,1917.5,898,1917,898.3z"/>
			<path class="st2" d="M1922.7,909.3c-1-2-2.1-4-3.1-6c0.5-0.3,1.1-0.6,1.6-0.8c1.1,2,2.1,4,3.1,6
				C1923.8,908.7,1923.3,909,1922.7,909.3z"/>
			<path class="st2" d="M1928.2,920.3c-1-2-1.9-4.1-3-6.1c0.5-0.3,1.1-0.5,1.6-0.8c1,2,2,4.1,3,6.1
				C1929.3,919.8,1928.7,920.1,1928.2,920.3z"/>
			<path class="st2" d="M1933.3,931.6c-0.9-2.1-1.8-4.1-2.8-6.2c0.6-0.2,1.1-0.5,1.6-0.8c0.9,2.1,1.9,4.1,2.8,6.2
				C1934.4,931.1,1933.9,931.3,1933.3,931.6z"/>
			<path class="st2" d="M1938.1,943c-0.9-2.1-1.7-4.2-2.6-6.3c0.6-0.2,1.1-0.5,1.7-0.7c0.9,2.1,1.8,4.2,2.6,6.3
				C1939.2,942.5,1938.7,942.7,1938.1,943z"/>
			<path class="st2" d="M1942.6,954.5c-0.8-2.1-1.6-4.2-2.4-6.3c0.6-0.2,1.1-0.4,1.7-0.7c0.8,2.1,1.6,4.2,2.4,6.4
				C1943.7,954,1943.1,954.3,1942.6,954.5z"/>
			<path class="st2" d="M1946.7,966.1c-0.7-2.1-1.5-4.3-2.2-6.4c0.6-0.2,1.1-0.4,1.7-0.6c0.8,2.1,1.5,4.3,2.2,6.4
				C1947.9,965.7,1947.3,965.9,1946.7,966.1z"/>
			<path class="st2" d="M1950.5,977.9c-0.7-2.2-1.3-4.3-2-6.5c0.6-0.2,1.2-0.4,1.7-0.6c0.7,2.2,1.4,4.3,2,6.5
				C1951.6,977.5,1951.1,977.7,1950.5,977.9z"/>
			<path class="st2" d="M1953.9,989.7c-0.6-2.2-1.2-4.4-1.8-6.5c0.6-0.2,1.2-0.3,1.7-0.5c0.6,2.2,1.3,4.4,1.9,6.5
				C1955.1,989.4,1954.5,989.6,1953.9,989.7z"/>
			<path class="st2" d="M1957,1001.7c-0.5-2.2-1.1-4.4-1.7-6.6c0.6-0.2,1.2-0.3,1.8-0.5c0.6,2.2,1.1,4.4,1.7,6.6
				C1958.2,1001.4,1957.6,1001.5,1957,1001.7z"/>
			<path class="st2" d="M1959.8,1013.7c-0.5-2.2-0.9-4.4-1.5-6.6c0.6-0.1,1.2-0.3,1.8-0.4c0.5,2.2,1,4.4,1.5,6.6
				C1961,1013.5,1960.4,1013.6,1959.8,1013.7z"/>
			<path class="st2" d="M1962.2,1025.8c-0.4-2.2-0.8-4.4-1.3-6.7c0.6-0.1,1.2-0.2,1.8-0.4c0.4,2.2,0.9,4.5,1.3,6.7
				C1963.4,1025.6,1962.8,1025.7,1962.2,1025.8z"/>
			<path class="st2" d="M1964.2,1038c-0.3-2.2-0.7-4.5-1.1-6.7c0.6-0.1,1.2-0.2,1.8-0.3c0.4,2.2,0.7,4.5,1.1,6.7
				C1965.4,1037.8,1964.8,1037.9,1964.2,1038z"/>
			<path class="st2" d="M1965.9,1050.3c-0.3-2.2-0.6-4.5-0.9-6.7c0.6-0.1,1.2-0.2,1.8-0.3c0.3,2.2,0.6,4.5,0.9,6.8
				C1967.1,1050.1,1966.5,1050.2,1965.9,1050.3z"/>
			<path class="st2" d="M1967.2,1062.5c-0.2-2.3-0.4-4.5-0.7-6.8c0.6-0.1,1.2-0.1,1.8-0.2c0.3,2.3,0.5,4.5,0.7,6.8
				C1968.4,1062.4,1967.8,1062.5,1967.2,1062.5z"/>
			<path class="st2" d="M1968.2,1074.8c-0.1-2.3-0.3-4.5-0.5-6.8c0.6-0.1,1.2-0.1,1.8-0.1c0.2,2.3,0.3,4.5,0.5,6.8
				C1969.4,1074.8,1968.8,1074.8,1968.2,1074.8z"/>
			<path class="st2" d="M1968.8,1087.2c-0.1-2.3-0.2-4.5-0.3-6.8c0.6,0,1.2-0.1,1.8-0.1c0.1,2.3,0.2,4.5,0.3,6.8
				C1970,1087.1,1969.4,1087.2,1968.8,1087.2z"/>
			<path class="st2" d="M1969,1099.5c0-2.3,0-4.5-0.1-6.8c0.6,0,1.2,0,1.8,0c0.1,2.3,0.1,4.5,0.1,6.8
				C1970.2,1099.5,1969.6,1099.5,1969,1099.5z"/>
			<path class="st2" d="M1968.9,1111.9c0-2.3,0.1-4.5,0.1-6.8c0.6,0,1.2,0,1.8,0c0,2.3-0.1,4.5-0.1,6.8
				C1970.1,1111.9,1969.5,1111.9,1968.9,1111.9z"/>
			<path class="st2" d="M1968.5,1124.2c0.1-2.3,0.2-4.5,0.3-6.8c0.6,0,1.2,0,1.8,0.1c-0.1,2.3-0.2,4.5-0.3,6.8
				C1969.7,1124.3,1969.1,1124.3,1968.5,1124.2z"/>
			<path class="st2" d="M1967.6,1136.5c0.2-2.3,0.3-4.5,0.5-6.8c0.6,0,1.2,0.1,1.8,0.1c-0.1,2.3-0.3,4.5-0.5,6.8
				C1968.8,1136.6,1968.2,1136.6,1967.6,1136.5z"/>
			<path class="st2" d="M1966.4,1148.8c0.3-2.2,0.5-4.5,0.7-6.8c0.6,0.1,1.2,0.1,1.8,0.2c-0.2,2.3-0.5,4.5-0.7,6.8
				C1967.6,1149,1967,1148.9,1966.4,1148.8z"/>
			<path class="st2" d="M1169,1355.5c8.2,12.2,17,24,26.4,35.3c-0.5,0.4-0.9,0.8-1.4,1.2c-9.4-11.4-18.3-23.2-26.5-35.5
				C1168,1356.1,1168.5,1355.8,1169,1355.5z"/>
			<path class="st2" d="M1139.7,1305.2c6.6,13.1,13.8,26,21.6,38.4c-0.5,0.3-1,0.6-1.5,1c-7.9-12.5-15.1-25.4-21.7-38.6
				C1138.6,1305.7,1139.1,1305.4,1139.7,1305.2z"/>
			<path class="st2" d="M1117,1251.5c4.9,13.9,10.4,27.5,16.5,40.9c-0.5,0.3-1.1,0.5-1.6,0.8c-6.2-13.4-11.7-27.1-16.6-41
				C1115.8,1251.9,1116.4,1251.7,1117,1251.5z"/>
			<path class="st2" d="M1101.3,1195.4c3,14.4,6.8,28.6,11.2,42.6c-0.6,0.2-1.1,0.4-1.7,0.5c-4.4-14.1-8.2-28.4-11.2-42.8
				C1100.1,1195.7,1100.7,1195.6,1101.3,1195.4z"/>
			<path class="st2" d="M1093,1137.8c1.2,14.7,3,29.3,5.6,43.7c-0.6,0.1-1.2,0.2-1.8,0.3c-2.6-14.5-4.5-29.2-5.6-43.9
				C1091.8,1137.9,1092.4,1137.9,1093,1137.8z"/>
			<path class="st2" d="M1092.1,1079.6c-0.7,14.7-0.7,29.4,0,44.1c-0.6,0-1.2,0.1-1.8,0.1c-0.7-14.7-0.7-29.5,0-44.3
				C1090.9,1079.5,1091.5,1079.6,1092.1,1079.6z"/>
			<path class="st2" d="M1098.7,1021.7c-2.6,14.5-4.5,29.1-5.7,43.7c-0.6-0.1-1.2-0.1-1.8-0.1c1.2-14.7,3.1-29.4,5.7-43.9
				C1097.5,1021.5,1098.1,1021.6,1098.7,1021.7z"/>
			<path class="st2" d="M1112.7,965.2c-4.4,14-8.2,28.3-11.2,42.6c-0.6-0.1-1.2-0.2-1.8-0.4c3.1-14.4,6.8-28.7,11.3-42.8
				C1111.5,964.8,1112.1,965,1112.7,965.2z"/>
			<path class="st2" d="M1133.7,910.9c-6.2,13.3-11.7,27-16.6,40.9c-0.6-0.2-1.1-0.4-1.7-0.6c4.9-13.9,10.4-27.6,16.7-41
				C1132.6,910.4,1133.2,910.6,1133.7,910.9z"/>
			<path class="st2" d="M1161.6,859.7c-7.9,12.4-15.1,25.3-21.7,38.4c-0.5-0.3-1.1-0.5-1.6-0.8c6.6-13.2,13.9-26.1,21.8-38.5
				C1160.6,859.1,1161.1,859.4,1161.6,859.7z"/>
			<path class="st2" d="M1280.7,733.3c-11.9,8.6-23.5,17.7-34.5,27.4c-0.4-0.5-0.8-0.9-1.2-1.4c11.1-9.7,22.7-18.9,34.7-27.5
				C1280,732.3,1280.4,732.8,1280.7,733.3z"/>
			<path class="st2" d="M1330.1,702.4c-12.9,7-25.5,14.6-37.7,22.8c-0.3-0.5-0.7-1-1-1.5c12.2-8.2,24.9-15.8,37.9-22.9
				C1329.6,701.4,1329.8,701.9,1330.1,702.4z"/>
			<path class="st2" d="M1383.1,678.2c-13.7,5.3-27.2,11.2-40.4,17.7c-0.3-0.5-0.5-1.1-0.8-1.6c13.2-6.6,26.7-12.5,40.5-17.8
				C1382.6,677,1382.9,677.6,1383.1,678.2z"/>
			<path class="st2" d="M1438.7,660.9c-14.3,3.5-28.4,7.6-42.3,12.4c-0.2-0.6-0.4-1.1-0.6-1.7c13.9-4.8,28.1-9,42.5-12.5
				C1438.4,659.7,1438.6,660.3,1438.7,660.9z"/>
			<path class="st2" d="M1496.1,650.9c-14.6,1.6-29.2,3.9-43.5,6.9c-0.1-0.6-0.3-1.2-0.4-1.8c14.4-3,29-5.3,43.7-6.9
				C1495.9,649.7,1496,650.3,1496.1,650.9z"/>
			<path class="st2" d="M1554.2,648.3c-14.7-0.3-29.4,0.1-44.1,1.3c0-0.6-0.1-1.2-0.1-1.8c14.7-1.1,29.5-1.6,44.2-1.3
				C1554.3,647.1,1554.2,647.7,1554.2,648.3z"/>
			<path class="st2" d="M1612.3,653.2c-14.5-2.2-29.2-3.6-43.9-4.4c0-0.6,0.1-1.2,0.1-1.8c14.7,0.8,29.4,2.2,44,4.4
				C1612.4,652,1612.3,652.6,1612.3,653.2z"/>
			<path class="st2" d="M1669.2,665.4c-14.1-4-28.5-7.4-43-10c0.1-0.6,0.2-1.2,0.3-1.8c14.5,2.6,28.9,6,43.1,10
				C1669.5,664.3,1669.4,664.9,1669.2,665.4z"/>
			<path class="st2" d="M1724.1,684.9c-13.5-5.8-27.3-10.9-41.3-15.4c0.2-0.6,0.4-1.2,0.5-1.7c14.1,4.5,27.9,9.6,41.5,15.4
				C1724.6,683.8,1724.3,684.4,1724.1,684.9z"/>
			<path class="st2" d="M1776,711.3c-12.7-7.5-25.7-14.3-39-20.6c0.3-0.5,0.5-1.1,0.8-1.6c13.4,6.2,26.5,13.1,39.2,20.6
				C1776.6,710.2,1776.3,710.7,1776,711.3z"/>
			<path class="st2" d="M1824.2,744c-11.6-9-23.6-17.5-36.1-25.4c0.3-0.5,0.6-1,1-1.5c12.5,7.9,24.6,16.4,36.2,25.5
				C1824.9,743.1,1824.5,743.6,1824.2,744z"/>
			<path class="st2" d="M1867.7,782.7c-10.3-10.4-21.2-20.4-32.5-29.8c0.4-0.5,0.8-0.9,1.2-1.4c11.3,9.4,22.2,19.4,32.6,29.9
				C1868.6,781.9,1868.1,782.3,1867.7,782.7z"/>
			<path class="st2" d="M1905.9,826.6c-8.9-11.7-18.4-22.9-28.4-33.7c0.4-0.4,0.9-0.8,1.3-1.2c10,10.8,19.6,22.1,28.5,33.8
				C1906.9,825.9,1906.4,826.3,1905.9,826.6z"/>
			<path class="st2" d="M1938.2,875.1c-7.3-12.7-15.3-25.1-23.9-37.1c0.5-0.3,1-0.7,1.5-1.1c8.6,12,16.6,24.4,24,37.2
				C1939.3,874.5,1938.7,874.8,1938.2,875.1z"/>
			<path class="st2" d="M1964,927.3c-5.7-13.6-12-26.9-18.9-39.8c0.5-0.3,1.1-0.6,1.6-0.9c7,13,13.3,26.4,19,40
				C1965.1,926.9,1964.6,927.1,1964,927.3z"/>
			<path class="st2" d="M1982.9,982.4c-3.9-14.2-8.4-28.2-13.7-41.9c0.6-0.2,1.1-0.4,1.7-0.6c5.2,13.8,9.8,27.8,13.7,42.1
				C1984.1,982.1,1983.5,982.2,1982.9,982.4z"/>
			<path class="st2" d="M1063.1,956.8c-26.4,87.9-28.2,183.4-5.1,272.2c-3.3,0.9-6.5,1.7-9.8,2.6c-23.6-90.6-21.8-188,5.2-277.6
				C1056.6,954.9,1059.9,955.8,1063.1,956.8z"/>
			<path class="st2" d="M1226.2,712.3c-71,58.2-125.8,136.4-156.1,223c-3.2-1.1-6.4-2.2-9.5-3.3c31-88.3,86.9-168.1,159.3-227.5
				C1221.9,707.1,1224.1,709.7,1226.2,712.3z"/>
		</g>
	</g>
	<g class="st3">
		<radialGradient id="SVGID_2_" cx="1542.7874" cy="1105.1372" r="669.3077" gradientUnits="userSpaceOnUse">
			<stop  offset="0.4784" style="stop-color:#FFFFFF"/>
			<stop  offset="0.5233" style="stop-color:#F7F7F7"/>
			<stop  offset="0.5921" style="stop-color:#E2E2E2"/>
			<stop  offset="0.6763" style="stop-color:#BFBFBF"/>
			<stop  offset="0.7728" style="stop-color:#8E8E8E"/>
			<stop  offset="0.8795" style="stop-color:#505050"/>
			<stop  offset="0.9933" style="stop-color:#050505"/>
			<stop  offset="1" style="stop-color:#000000"/>
		</radialGradient>
		<path class="st4" d="M1542.8,637.9c-258.1,0-467.2,209.2-467.2,467.2c0,258.1,209.2,467.3,467.2,467.3
			c258.1,0,467.3-209.2,467.3-467.3C2010,847.1,1800.8,637.9,1542.8,637.9z M1794.1,1209.1c-11.2,34.4-30.3,64.1-57.3,89.3
			c-50.3,50.3-125,81.2-196.1,81.2c-75.1,0-141.9-31.4-196.1-81.2c-54.5-50-78-124.4-81.2-196.1c-1.4-38.2,6.5-73.8,23.9-106.9
			c11.2-34.4,30.3-64.1,57.3-89.3c50.3-50.3,125-81.2,196.1-81.2c75.1,0,141.9,31.4,196.1,81.2c54.5,50,78,124.4,81.2,196.1
			C1819.5,1140.4,1811.5,1176,1794.1,1209.1z"/>
		<radialGradient id="SVGID_3_" cx="1542.7874" cy="1105.1372" r="669.3077" gradientUnits="userSpaceOnUse">
			<stop  offset="0.4784" style="stop-color:#FFFFFF"/>
			<stop  offset="0.5233" style="stop-color:#F7F7F7"/>
			<stop  offset="0.5921" style="stop-color:#E2E2E2"/>
			<stop  offset="0.6763" style="stop-color:#BFBFBF"/>
			<stop  offset="0.7728" style="stop-color:#8E8E8E"/>
			<stop  offset="0.8795" style="stop-color:#505050"/>
			<stop  offset="0.9933" style="stop-color:#050505"/>
			<stop  offset="1" style="stop-color:#000000"/>
		</radialGradient>
		<path class="st5" d="M1542.8,637.9c-258.1,0-467.2,209.2-467.2,467.2c0,258.1,209.2,467.3,467.2,467.3
			c258.1,0,467.3-209.2,467.3-467.3C2010,847.1,1800.8,637.9,1542.8,637.9z M1794.1,1209.1c-11.2,34.4-30.3,64.1-57.3,89.3
			c-50.3,50.3-125,81.2-196.1,81.2c-75.1,0-141.9-31.4-196.1-81.2c-54.5-50-78-124.4-81.2-196.1c-1.4-38.2,6.5-73.8,23.9-106.9
			c11.2-34.4,30.3-64.1,57.3-89.3c50.3-50.3,125-81.2,196.1-81.2c75.1,0,141.9,31.4,196.1,81.2c54.5,50,78,124.4,81.2,196.1
			C1819.5,1140.4,1811.5,1176,1794.1,1209.1z"/>
		<path class="st6" d="M1542.8,511.6c-327.8,0-593.5,265.7-593.5,593.5c0,327.8,265.7,593.5,593.5,593.5
			c327.8,0,593.5-265.7,593.5-593.5C2136.3,777.3,1870.6,511.6,1542.8,511.6z M1542.8,1572.4c-258.1,0-467.2-209.2-467.2-467.3
			c0-258.1,209.2-467.2,467.2-467.2c258.1,0,467.3,209.2,467.3,467.2C2010,1363.2,1800.8,1572.4,1542.8,1572.4z"/>
		<radialGradient id="SVGID_4_" cx="1542.7874" cy="1105.1372" r="688.0953" gradientUnits="userSpaceOnUse">
			<stop  offset="0.3608" style="stop-color:#FFFFFF"/>
			<stop  offset="0.3974" style="stop-color:#FAFAFA"/>
			<stop  offset="0.4425" style="stop-color:#EBEBEB"/>
			<stop  offset="0.4922" style="stop-color:#D2D2D2"/>
			<stop  offset="0.545" style="stop-color:#AFAFAF"/>
			<stop  offset="0.6004" style="stop-color:#828282"/>
			<stop  offset="0.658" style="stop-color:#4B4B4B"/>
			<stop  offset="0.7162" style="stop-color:#0B0B0B"/>
			<stop  offset="0.7255" style="stop-color:#000000"/>
			<stop  offset="0.7613" style="stop-color:#323232"/>
			<stop  offset="0.8101" style="stop-color:#6F6F6F"/>
			<stop  offset="0.8569" style="stop-color:#A3A3A3"/>
			<stop  offset="0.9006" style="stop-color:#CBCBCB"/>
			<stop  offset="0.9403" style="stop-color:#E7E7E7"/>
			<stop  offset="0.9747" style="stop-color:#F9F9F9"/>
			<stop  offset="1" style="stop-color:#FFFFFF"/>
		</radialGradient>
		<path class="st7" d="M1542.8,417c-380,0-688.1,308.1-688.1,688.1c0,380,308.1,688.1,688.1,688.1c380,0,688.1-308.1,688.1-688.1
			C2230.9,725.1,1922.8,417,1542.8,417z M1542.8,1698.7c-327.8,0-593.5-265.7-593.5-593.5c0-327.8,265.7-593.5,593.5-593.5
			c327.8,0,593.5,265.7,593.5,593.5C2136.3,1432.9,1870.6,1698.7,1542.8,1698.7z"/>
	</g>
</g>
<g class="st8">
	<g>
		<g>
			<path class="st2" d="M1501.4,1401.1c121,16.3,250.9-53.8,303.7-163.9c4.9,2.4,9.8,4.7,14.7,7.1
				c-55.8,116.2-192.9,190.2-320.7,173.1C1499.9,1411.9,1500.7,1406.5,1501.4,1401.1z"/>
			<g>
				<path class="st2" d="M1816.2,1170.8l0.7,0.2l158.9,35.2l-0.2,0.7c-19.5,87.6-70,171-142.3,234.9
					c-72.3,63.9-161.3,103.8-250.7,112.3l-0.7,0.1l-15.4-162.7l0.7-0.1c116.5-11.1,223.4-105.6,248.8-219.8L1816.2,1170.8z
					 M1974,1207.3l-156.7-34.7c-12.5,55.5-44.6,108.3-90.4,148.8c-45.8,40.5-102.2,65.8-158.8,71.4l15.1,159.8
					C1766.1,1534.7,1933.9,1386.5,1974,1207.3z"/>
				<path class="st2" d="M1916.3,816.8l0.5,0.6c61.5,78.9,97.2,177.5,100.5,277.4c3.3,100-25.9,200.7-82,283.4l-0.4,0.6l-67-45.5
					l-133.4-90.5l0.4-0.6c54.6-80.5,50.7-199.2-9.1-275.9l-0.5-0.6l25.8-20.1L1916.3,816.8z M1934.4,1376.8
					c55.7-82.4,84.6-182.5,81.4-281.9c-3.3-99.4-38.7-197.4-99.7-276L1727.3,966c59.6,77.1,63.5,195.7,9.1,276.5L1934.4,1376.8z"/>
				<path class="st2" d="M1078.9,1150.2l0.7-0.1l162.1-14.2l0.1,0.7c9.1,102.8,74.8,198.4,167.6,243.5
					c92.8,45.1,208.6,37.9,295-18.4l0.6-0.4l89.2,137l-0.6,0.4c-65.1,42.4-142.7,67.5-224.3,72.6c-81.6,5.1-161.6-10.2-231.5-44.2
					c-69.9-34-131.3-87.6-177.6-155c-46.3-67.3-74.4-143.8-81.3-221.3L1078.9,1150.2z M1240.4,1137.6l-159.9,14
					c14.2,158,115.4,304.8,258,374.3c142.7,69.3,320.7,58.4,453.7-27.9l-87.6-134.5c-42.2,27.3-92.5,43.5-145.3,46.8
					c-53.1,3.3-105.1-6.6-150.6-28.7c-45.5-22.1-85.4-57-115.5-100.8C1263.2,1237.2,1244.9,1187.7,1240.4,1137.6z"/>
				<path class="st2" d="M1569.2,700.8l0.7,0.1c68.7,4.9,136.9,28.8,197.2,68.8c60.3,40.1,108.7,93.7,139.8,155.1
					c31.1,61.4,45.8,132.2,42.4,204.5c-3.3,72.3-24.5,141.4-61.1,199.7l-0.4,0.6l-117.3-73.8l0.4-0.6
					c49.8-79.2,54.6-184.4,12.4-267.8c-42.3-83.4-130-141.7-223.3-148.4l-0.7-0.1L1569.2,700.8z M1887.4,1327.7
					c74.5-119.1,81.6-276.8,18.2-402.2c-63.5-125.2-195-212.8-335.1-223.1l-9.7,135.3c45.5,3.4,90.7,19.2,130.6,45.8
					c40.2,26.7,72.4,62.4,93.2,103.4c20.7,40.9,30.5,88,28.3,136.2c-2.2,47.9-16.2,93.7-40.3,132.4L1887.4,1327.7z"/>
				<path class="st2" d="M1011.8,1226.1l0.7-0.2l268.1-59l0.2,0.7c11.5,52.1,39.3,100.9,78.3,137.3l0.5,0.5l-0.5,0.5l-187.4,200.6
					l-0.5-0.5c-79.3-74.1-135.8-173.3-159.2-279.3L1011.8,1226.1z M1279.5,1168.7l-265.9,58.5c23.3,105.2,79.4,203.6,158,277.3
					l185.8-199C1318.7,1269.1,1291.1,1220.6,1279.5,1168.7z"/>
				<path class="st2" d="M1422.9,1299.5l0.6,0.4c10.4,6.4,21.5,12.1,32.8,16.7l0.7,0.3l-0.3,0.7l-103.9,254l-0.7-0.3
					c-25.2-10.3-49.9-22.9-73.3-37.3l-0.6-0.4l0.4-0.6L1422.9,1299.5z M1455.1,1317.7c-10.9-4.5-21.6-10-31.7-16.1l-143.2,231.6
					c23,14.1,47.1,26.4,71.8,36.6L1455.1,1317.7z"/>
			</g>
			<path class="st2" d="M1736.2,1224.2c0.6-1,1.1-2,1.7-3c68.2,38.3,136.4,76.5,204.5,114.8c-1.1,2-2.3,4.1-3.5,6.1
				C1871.4,1302.8,1803.8,1263.5,1736.2,1224.2z"/>
			<path class="st2" d="M1541.4,1368c1.3,0,2.6,0,3.9,0c0.9,52,1.9,104,2.8,155.9c-2.1,0-4.2,0.1-6.3,0.1
				C1541.6,1472,1541.5,1420,1541.4,1368z"/>
			<path class="st2" d="M1319.7,1200.1c0.4,1.1,0.9,2.2,1.4,3.4c-93.9,39.8-187.9,79.5-281.8,119.3c-1.1-2.5-2.1-5.1-3.2-7.7
				C1130.7,1276.8,1225.2,1238.4,1319.7,1200.1z"/>
			<path class="st2" d="M1311.5,876.6c-104.2,102.2-126.1,281.7-49.4,406c76.8,124.2,247,185,385.1,137.6
				c138-47.6,234.8-200.3,218.9-345.4c-16-145.1-143.7-273.1-288.8-289.6c0-0.1,0-0.3,0-0.4c145.2,16.5,273,144.7,289.1,289.9
				c15.9,145.3-81,298.2-219.2,345.8c-138.2,47.5-308.7-13.4-385.6-137.7c-76.7-124.4-54.9-304.1,49.5-406.4
				C1311.3,876.4,1311.4,876.5,1311.5,876.6z"/>
			<path class="st2" d="M1814.8,1149.9c0.2-1.5,0.4-2.9,0.6-4.4c0.4,0,0.8,0.1,1.2,0.2c-0.2,1.5-0.4,2.9-0.6,4.4
				C1815.6,1150,1815.2,1150,1814.8,1149.9z"/>
			<path class="st2" d="M1813.7,1157.3c0.2-1.5,0.5-2.9,0.7-4.4c0.4,0.1,0.8,0.1,1.2,0.2c-0.2,1.5-0.5,2.9-0.7,4.4
				C1814.5,1157.4,1814.1,1157.3,1813.7,1157.3z"/>
			<path class="st2" d="M1812.3,1164.6c0.3-1.5,0.6-2.9,0.8-4.4c0.4,0.1,0.8,0.1,1.2,0.2c-0.3,1.5-0.5,2.9-0.8,4.4
				C1813.1,1164.8,1812.7,1164.7,1812.3,1164.6z"/>
			<path class="st2" d="M1810.8,1171.9c0.3-1.4,0.6-2.9,0.9-4.3c0.4,0.1,0.8,0.2,1.2,0.2c-0.3,1.5-0.6,2.9-1,4.4
				C1811.6,1172.1,1811.2,1172,1810.8,1171.9z"/>
			<path class="st2" d="M1809,1179.2c0.4-1.4,0.7-2.9,1.1-4.3c0.4,0.1,0.8,0.2,1.2,0.3c-0.3,1.4-0.7,2.9-1.1,4.3
				C1809.8,1179.4,1809.4,1179.3,1809,1179.2z"/>
			<path class="st2" d="M1807.1,1186.4c0.4-1.4,0.8-2.8,1.2-4.3c0.4,0.1,0.8,0.2,1.2,0.3c-0.4,1.4-0.8,2.9-1.2,4.3
				C1807.8,1186.6,1807.5,1186.5,1807.1,1186.4z"/>
			<path class="st2" d="M1804.9,1193.5c0.4-1.4,0.9-2.8,1.3-4.2c0.4,0.1,0.8,0.2,1.1,0.3c-0.4,1.4-0.9,2.8-1.3,4.3
				C1805.7,1193.8,1805.3,1193.6,1804.9,1193.5z"/>
			<path class="st2" d="M1802.6,1200.6c0.5-1.4,1-2.8,1.4-4.2c0.4,0.1,0.8,0.3,1.1,0.4c-0.5,1.4-0.9,2.8-1.4,4.2
				C1803.4,1200.9,1803,1200.7,1802.6,1200.6z"/>
			<path class="st2" d="M1800.1,1207.6c0.5-1.4,1-2.8,1.5-4.2c0.4,0.1,0.8,0.3,1.1,0.4c-0.5,1.4-1,2.8-1.5,4.2
				C1800.8,1207.9,1800.5,1207.8,1800.1,1207.6z"/>
			<path class="st2" d="M1797.4,1214.6c0.6-1.4,1.1-2.7,1.6-4.1c0.4,0.1,0.7,0.3,1.1,0.4c-0.5,1.4-1.1,2.8-1.6,4.1
				C1798.1,1214.9,1797.7,1214.7,1797.4,1214.6z"/>
			<path class="st2" d="M1794.5,1221.4c0.6-1.4,1.2-2.7,1.7-4.1c0.4,0.2,0.7,0.3,1.1,0.5c-0.6,1.4-1.2,2.7-1.7,4.1
				C1795.2,1221.8,1794.8,1221.6,1794.5,1221.4z"/>
			<path class="st2" d="M1791.4,1228.2c0.6-1.3,1.2-2.7,1.9-4c0.4,0.2,0.7,0.3,1.1,0.5c-0.6,1.4-1.2,2.7-1.9,4
				C1792.1,1228.6,1791.8,1228.4,1791.4,1228.2z"/>
			<path class="st2" d="M1788.1,1235c0.7-1.3,1.3-2.6,2-4c0.4,0.2,0.7,0.3,1.1,0.5c-0.6,1.3-1.3,2.7-2,4
				C1788.9,1235.3,1788.5,1235.1,1788.1,1235z"/>
			<path class="st2" d="M1784.7,1241.6c0.7-1.3,1.4-2.6,2.1-3.9c0.4,0.2,0.7,0.4,1.1,0.6c-0.7,1.3-1.4,2.6-2.1,3.9
				C1785.4,1241.9,1785,1241.8,1784.7,1241.6z"/>
			<path class="st2" d="M1781.1,1248.1c0.7-1.3,1.5-2.6,2.2-3.9c0.3,0.2,0.7,0.4,1,0.6c-0.7,1.3-1.4,2.6-2.2,3.9
				C1781.8,1248.5,1781.4,1248.3,1781.1,1248.1z"/>
			<path class="st2" d="M1777.3,1254.5c0.8-1.3,1.5-2.5,2.3-3.8c0.3,0.2,0.7,0.4,1,0.6c-0.8,1.3-1.5,2.6-2.3,3.8
				C1778,1254.9,1777.6,1254.7,1777.3,1254.5z"/>
			<path class="st2" d="M1773.3,1260.8c0.8-1.2,1.6-2.5,2.4-3.7c0.3,0.2,0.7,0.4,1,0.6c-0.8,1.3-1.6,2.5-2.4,3.8
				C1774,1261.3,1773.7,1261.1,1773.3,1260.8z"/>
			<path class="st2" d="M1769.2,1267.1c0.8-1.2,1.7-2.4,2.5-3.7c0.3,0.2,0.7,0.4,1,0.7c-0.8,1.2-1.7,2.5-2.5,3.7
				C1769.8,1267.5,1769.5,1267.3,1769.2,1267.1z"/>
			<path class="st2" d="M1764.9,1273.2c0.9-1.2,1.7-2.4,2.6-3.6c0.3,0.2,0.7,0.5,1,0.7c-0.9,1.2-1.7,2.4-2.6,3.6
				C1765.5,1273.6,1765.2,1273.4,1764.9,1273.2z"/>
			<path class="st2" d="M1760.4,1279.1c0.9-1.2,1.8-2.4,2.7-3.5c0.3,0.2,0.6,0.5,1,0.7c-0.9,1.2-1.8,2.4-2.7,3.6
				C1761.1,1279.6,1760.7,1279.4,1760.4,1279.1z"/>
			<path class="st2" d="M1755.8,1285c0.9-1.1,1.9-2.3,2.8-3.5c0.3,0.2,0.6,0.5,0.9,0.7c-0.9,1.2-1.8,2.3-2.8,3.5
				C1756.4,1285.5,1756.1,1285.2,1755.8,1285z"/>
			<path class="st2" d="M1751,1290.7c1-1.1,1.9-2.2,2.9-3.4c0.3,0.3,0.6,0.5,0.9,0.8c-0.9,1.1-1.9,2.3-2.9,3.4
				C1751.6,1291.2,1751.3,1291,1751,1290.7z"/>
			<path class="st2" d="M1746.1,1296.3c1-1.1,2-2.2,2.9-3.3c0.3,0.3,0.6,0.5,0.9,0.8c-1,1.1-2,2.2-3,3.3
				C1746.7,1296.9,1746.4,1296.6,1746.1,1296.3z"/>
			<path class="st2" d="M1741,1301.8c1-1.1,2-2.1,3-3.2c0.3,0.3,0.6,0.5,0.9,0.8c-1,1.1-2,2.2-3,3.2
				C1741.6,1302.3,1741.3,1302.1,1741,1301.8z"/>
			<path class="st2" d="M1735.8,1307.1c1-1,2.1-2.1,3.1-3.2c0.3,0.3,0.6,0.6,0.9,0.8c-1,1.1-2.1,2.1-3.1,3.2
				C1736.4,1307.7,1736.1,1307.4,1735.8,1307.1z"/>
			<path class="st2" d="M1730.4,1312.3c1.1-1,2.1-2,3.2-3.1c0.3,0.3,0.6,0.6,0.8,0.9c-1.1,1-2.1,2.1-3.2,3.1
				C1731,1312.9,1730.7,1312.6,1730.4,1312.3z"/>
			<path class="st2" d="M1724.9,1317.3c1.1-1,2.2-2,3.3-3c0.3,0.3,0.5,0.6,0.8,0.9c-1.1,1-2.2,2-3.3,3
				C1725.5,1317.9,1725.2,1317.6,1724.9,1317.3z"/>
			<path class="st2" d="M1719.3,1322.2c1.1-1,2.2-1.9,3.4-2.9c0.3,0.3,0.5,0.6,0.8,0.9c-1.1,1-2.2,1.9-3.4,2.9
				C1719.8,1322.8,1719.6,1322.5,1719.3,1322.2z"/>
			<path class="st2" d="M1713.5,1327c1.1-0.9,2.3-1.9,3.4-2.8c0.3,0.3,0.5,0.6,0.8,0.9c-1.1,0.9-2.3,1.9-3.5,2.8
				C1714,1327.6,1713.8,1327.3,1713.5,1327z"/>
			<path class="st2" d="M1707.6,1331.5c1.2-0.9,2.3-1.8,3.5-2.7c0.2,0.3,0.5,0.6,0.7,0.9c-1.2,0.9-2.3,1.8-3.5,2.7
				C1708.1,1332.2,1707.9,1331.8,1707.6,1331.5z"/>
			<path class="st2" d="M1701.6,1335.9c1.2-0.9,2.4-1.7,3.6-2.6c0.2,0.3,0.5,0.6,0.7,1c-1.2,0.9-2.4,1.8-3.6,2.6
				C1702.1,1336.6,1701.9,1336.3,1701.6,1335.9z"/>
			<path class="st2" d="M1695.5,1340.2c1.2-0.8,2.4-1.7,3.7-2.5c0.2,0.3,0.5,0.7,0.7,1c-1.2,0.8-2.4,1.7-3.7,2.5
				C1695.9,1340.9,1695.7,1340.5,1695.5,1340.2z"/>
			<path class="st2" d="M1689.3,1344.3c1.2-0.8,2.5-1.6,3.7-2.4c0.2,0.3,0.4,0.7,0.7,1c-1.2,0.8-2.5,1.6-3.7,2.4
				C1689.7,1345,1689.5,1344.6,1689.3,1344.3z"/>
			<path class="st2" d="M1682.9,1348.2c1.3-0.8,2.5-1.5,3.8-2.3c0.2,0.3,0.4,0.7,0.6,1c-1.3,0.8-2.5,1.6-3.8,2.3
				C1683.3,1348.9,1683.1,1348.5,1682.9,1348.2z"/>
			<path class="st2" d="M1676.5,1351.9c1.3-0.7,2.6-1.5,3.8-2.2c0.2,0.3,0.4,0.7,0.6,1c-1.3,0.7-2.6,1.5-3.9,2.2
				C1676.8,1352.6,1676.6,1352.3,1676.5,1351.9z"/>
			<path class="st2" d="M1669.9,1355.5c1.3-0.7,2.6-1.4,3.9-2.1c0.2,0.3,0.4,0.7,0.6,1.1c-1.3,0.7-2.6,1.4-3.9,2.1
				C1670.3,1356.2,1670.1,1355.9,1669.9,1355.5z"/>
			<path class="st2" d="M1663.3,1358.9c1.3-0.6,2.6-1.3,4-2c0.2,0.4,0.4,0.7,0.5,1.1c-1.3,0.7-2.6,1.3-4,2
				C1663.6,1359.6,1663.4,1359.3,1663.3,1358.9z"/>
			<path class="st2" d="M1656.5,1362.1c1.3-0.6,2.7-1.2,4-1.9c0.2,0.4,0.3,0.7,0.5,1.1c-1.3,0.6-2.7,1.3-4,1.9
				C1656.9,1362.8,1656.7,1362.5,1656.5,1362.1z"/>
			<path class="st2" d="M1649.7,1365.2c1.4-0.6,2.7-1.2,4.1-1.8c0.2,0.4,0.3,0.7,0.5,1.1c-1.4,0.6-2.7,1.2-4.1,1.8
				C1650,1365.9,1649.9,1365.5,1649.7,1365.2z"/>
			<path class="st2" d="M1642.8,1368c1.4-0.5,2.7-1.1,4.1-1.7c0.2,0.4,0.3,0.7,0.5,1.1c-1.4,0.6-2.7,1.1-4.1,1.7
				C1643.1,1368.7,1643,1368.4,1642.8,1368z"/>
			<path class="st2" d="M1635.8,1370.7c1.4-0.5,2.8-1,4.1-1.6c0.1,0.4,0.3,0.7,0.4,1.1c-1.4,0.5-2.8,1.1-4.2,1.6
				C1636.1,1371.4,1636,1371,1635.8,1370.7z"/>
			<path class="st2" d="M1628.8,1373.1c1.4-0.5,2.8-0.9,4.2-1.4c0.1,0.4,0.3,0.8,0.4,1.1c-1.4,0.5-2.8,1-4.2,1.5
				C1629.1,1373.9,1628.9,1373.5,1628.8,1373.1z"/>
			<path class="st2" d="M1621.7,1375.4c1.4-0.4,2.8-0.9,4.2-1.3c0.1,0.4,0.2,0.8,0.4,1.1c-1.4,0.4-2.8,0.9-4.2,1.3
				C1621.9,1376.2,1621.8,1375.8,1621.7,1375.4z"/>
			<path class="st2" d="M1614.5,1377.5c1.4-0.4,2.8-0.8,4.3-1.2c0.1,0.4,0.2,0.8,0.3,1.2c-1.4,0.4-2.9,0.8-4.3,1.2
				C1614.7,1378.3,1614.6,1377.9,1614.5,1377.5z"/>
			<path class="st2" d="M1607.3,1379.4c1.4-0.4,2.9-0.7,4.3-1.1c0.1,0.4,0.2,0.8,0.3,1.2c-1.4,0.4-2.9,0.8-4.3,1.1
				C1607.5,1380.2,1607.4,1379.8,1607.3,1379.4z"/>
			<path class="st2" d="M1600,1381.1c1.4-0.3,2.9-0.6,4.3-1c0.1,0.4,0.2,0.8,0.3,1.2c-1.4,0.3-2.9,0.7-4.3,1
				C1600.2,1381.9,1600.1,1381.5,1600,1381.1z"/>
			<path class="st2" d="M1592.7,1382.6c1.5-0.3,2.9-0.6,4.3-0.9c0.1,0.4,0.2,0.8,0.2,1.2c-1.5,0.3-2.9,0.6-4.4,0.9
				C1592.9,1383.4,1592.8,1383,1592.7,1382.6z"/>
			<path class="st2" d="M1585.4,1383.9c1.5-0.2,2.9-0.5,4.4-0.8c0.1,0.4,0.1,0.8,0.2,1.2c-1.5,0.3-2.9,0.5-4.4,0.8
				C1585.5,1384.7,1585.5,1384.3,1585.4,1383.9z"/>
			<path class="st2" d="M1578,1385c1.5-0.2,2.9-0.4,4.4-0.6c0.1,0.4,0.1,0.8,0.2,1.2c-1.5,0.2-2.9,0.4-4.4,0.6
				C1578.1,1385.8,1578.1,1385.4,1578,1385z"/>
			<path class="st2" d="M1570.6,1385.9c1.5-0.2,2.9-0.3,4.4-0.5c0,0.4,0.1,0.8,0.1,1.2c-1.5,0.2-2.9,0.4-4.4,0.5
				C1570.7,1386.7,1570.7,1386.3,1570.6,1385.9z"/>
			<path class="st2" d="M1563.2,1386.6c1.5-0.1,2.9-0.3,4.4-0.4c0,0.4,0.1,0.8,0.1,1.2c-1.5,0.1-3,0.3-4.4,0.4
				C1563.3,1387.4,1563.2,1387,1563.2,1386.6z"/>
			<path class="st2" d="M1555.7,1387.1c1.5-0.1,2.9-0.2,4.4-0.3c0,0.4,0.1,0.8,0.1,1.2c-1.5,0.1-3,0.2-4.4,0.3
				C1555.8,1387.9,1555.8,1387.5,1555.7,1387.1z"/>
			<path class="st2" d="M1548.3,1387.4c1.5,0,3-0.1,4.4-0.2c0,0.4,0,0.8,0.1,1.2c-1.5,0.1-3,0.1-4.4,0.2
				C1548.3,1388.2,1548.3,1387.8,1548.3,1387.4z"/>
			<path class="st2" d="M1310.3,1264.3c0.8,1.2,1.7,2.4,2.5,3.7c-0.3,0.2-0.7,0.5-1,0.7c-0.8-1.2-1.7-2.4-2.5-3.7
				C1309.6,1264.8,1309.9,1264.6,1310.3,1264.3z"/>
			<path class="st2" d="M1305.8,1257.5c0.8,1.3,1.6,2.5,2.4,3.7c-0.3,0.2-0.7,0.4-1,0.7c-0.8-1.2-1.6-2.5-2.4-3.8
				C1305.2,1257.9,1305.5,1257.7,1305.8,1257.5z"/>
			<path class="st2" d="M1301.6,1250.5c0.7,1.3,1.5,2.5,2.3,3.8c-0.3,0.2-0.7,0.4-1,0.6c-0.8-1.3-1.5-2.5-2.3-3.8
				C1300.9,1250.9,1301.3,1250.7,1301.6,1250.5z"/>
			<path class="st2" d="M1297.6,1243.4c0.7,1.3,1.4,2.6,2.2,3.9c-0.3,0.2-0.7,0.4-1,0.6c-0.7-1.3-1.5-2.6-2.2-3.9
				C1296.9,1243.8,1297.3,1243.6,1297.6,1243.4z"/>
			<path class="st2" d="M1293.8,1236.2c0.7,1.3,1.4,2.6,2,3.9c-0.4,0.2-0.7,0.4-1.1,0.6c-0.7-1.3-1.4-2.6-2.1-4
				C1293.1,1236.6,1293.4,1236.4,1293.8,1236.2z"/>
			<path class="st2" d="M1290.2,1228.9c0.6,1.3,1.3,2.7,1.9,4c-0.4,0.2-0.7,0.4-1.1,0.5c-0.7-1.3-1.3-2.7-1.9-4
				C1289.5,1229.3,1289.8,1229.1,1290.2,1228.9z"/>
			<path class="st2" d="M1286.8,1221.5c0.6,1.4,1.2,2.7,1.8,4c-0.4,0.2-0.7,0.3-1.1,0.5c-0.6-1.3-1.2-2.7-1.8-4.1
				C1286.1,1221.8,1286.5,1221.7,1286.8,1221.5z"/>
			<path class="st2" d="M1283.7,1214c0.6,1.4,1.1,2.7,1.7,4.1c-0.4,0.2-0.7,0.3-1.1,0.5c-0.6-1.4-1.1-2.7-1.7-4.1
				C1282.9,1214.3,1283.3,1214.1,1283.7,1214z"/>
			<path class="st2" d="M1280.7,1206.4c0.5,1.4,1,2.8,1.6,4.1c-0.4,0.1-0.7,0.3-1.1,0.4c-0.5-1.4-1.1-2.8-1.6-4.2
				C1280,1206.7,1280.4,1206.5,1280.7,1206.4z"/>
			<path class="st2" d="M1278,1198.7c0.5,1.4,0.9,2.8,1.4,4.2c-0.4,0.1-0.8,0.3-1.1,0.4c-0.5-1.4-1-2.8-1.5-4.2
				C1277.3,1198.9,1277.7,1198.8,1278,1198.7z"/>
			<path class="st2" d="M1275.6,1190.9c0.4,1.4,0.9,2.8,1.3,4.2c-0.4,0.1-0.8,0.2-1.1,0.4c-0.5-1.4-0.9-2.8-1.3-4.2
				C1274.8,1191.2,1275.2,1191.1,1275.6,1190.9z"/>
			<path class="st2" d="M1273.3,1183.1c0.4,1.4,0.8,2.8,1.2,4.3c-0.4,0.1-0.8,0.2-1.1,0.3c-0.4-1.4-0.8-2.9-1.2-4.3
				C1272.5,1183.3,1272.9,1183.2,1273.3,1183.1z"/>
			<path class="st2" d="M1271.3,1175.2c0.3,1.4,0.7,2.9,1.1,4.3c-0.4,0.1-0.8,0.2-1.2,0.3c-0.4-1.4-0.7-2.9-1.1-4.3
				C1270.5,1175.4,1270.9,1175.3,1271.3,1175.2z"/>
			<path class="st2" d="M1269.5,1167.3c0.3,1.4,0.6,2.9,0.9,4.3c-0.4,0.1-0.8,0.2-1.2,0.3c-0.3-1.4-0.6-2.9-0.9-4.3
				C1268.7,1167.4,1269.1,1167.3,1269.5,1167.3z"/>
			<path class="st2" d="M1267.9,1159.3c0.3,1.5,0.5,2.9,0.8,4.4c-0.4,0.1-0.8,0.2-1.2,0.2c-0.3-1.5-0.6-2.9-0.8-4.4
				C1267.2,1159.4,1267.6,1159.3,1267.9,1159.3z"/>
			<path class="st2" d="M1266.6,1151.2c0.2,1.5,0.4,2.9,0.7,4.4c-0.4,0.1-0.8,0.1-1.2,0.2c-0.2-1.5-0.5-2.9-0.7-4.4
				C1265.8,1151.3,1266.2,1151.3,1266.6,1151.2z"/>
			<path class="st2" d="M1265.6,1143.1c0.2,1.5,0.4,2.9,0.6,4.4c-0.4,0.1-0.8,0.1-1.2,0.2c-0.2-1.5-0.4-2.9-0.6-4.4
				C1264.8,1143.2,1265.2,1143.2,1265.6,1143.1z"/>
			<path class="st2" d="M1264.7,1135c0.1,1.5,0.3,2.9,0.4,4.4c-0.4,0-0.8,0.1-1.2,0.1c-0.2-1.5-0.3-3-0.4-4.4
				C1263.9,1135.1,1264.3,1135.1,1264.7,1135z"/>
			<path class="st2" d="M1264.1,1126.9c0.1,1.5,0.2,2.9,0.3,4.4c-0.4,0-0.8,0.1-1.2,0.1c-0.1-1.5-0.2-3-0.3-4.4
				C1263.3,1127,1263.7,1126.9,1264.1,1126.9z"/>
			<path class="st2" d="M1263.7,1118.8c0,1.5,0.1,3,0.2,4.4c-0.4,0-0.8,0-1.2,0.1c-0.1-1.5-0.1-3-0.2-4.4
				C1262.9,1118.8,1263.3,1118.8,1263.7,1118.8z"/>
			<path class="st2" d="M1260.3,1110.6c0,1.5,0,3,0,4.5c-0.4,0-0.8,0-1.2,0c0-1.5,0-3,0-4.5
				C1259.5,1110.6,1259.9,1110.6,1260.3,1110.6z"/>
			<path class="st2" d="M1260.4,1102.4c0,1.5-0.1,3-0.1,4.5c-0.4,0-0.8,0-1.2,0c0-1.5,0.1-3,0.1-4.5
				C1259.6,1102.4,1260,1102.4,1260.4,1102.4z"/>
			<path class="st2" d="M1260.8,1094.3c-0.1,1.5-0.2,3-0.2,4.5c-0.4,0-0.8,0-1.2,0c0.1-1.5,0.1-3,0.2-4.5
				C1260,1094.2,1260.4,1094.3,1260.8,1094.3z"/>
			<path class="st2" d="M1261.4,1086.1c-0.1,1.5-0.2,3-0.4,4.5c-0.4,0-0.8-0.1-1.2-0.1c0.1-1.5,0.2-3,0.4-4.5
				C1260.6,1086.1,1261,1086.1,1261.4,1086.1z"/>
			<path class="st2" d="M1262.2,1078c-0.2,1.5-0.3,3-0.5,4.5c-0.4,0-0.8-0.1-1.2-0.1c0.1-1.5,0.3-3,0.5-4.5
				C1261.4,1077.9,1261.8,1078,1262.2,1078z"/>
			<path class="st2" d="M1263.3,1069.9c-0.2,1.5-0.4,3-0.6,4.4c-0.4-0.1-0.8-0.1-1.2-0.2c0.2-1.5,0.4-3,0.6-4.5
				C1262.5,1069.8,1262.9,1069.8,1263.3,1069.9z"/>
			<path class="st2" d="M1264.6,1061.8c-0.3,1.5-0.5,2.9-0.7,4.4c-0.4-0.1-0.8-0.1-1.2-0.2c0.2-1.5,0.5-3,0.7-4.4
				C1263.8,1061.7,1264.2,1061.8,1264.6,1061.8z"/>
			<path class="st2" d="M1266.1,1053.8c-0.3,1.5-0.6,2.9-0.9,4.4c-0.4-0.1-0.8-0.1-1.2-0.2c0.3-1.5,0.6-2.9,0.9-4.4
				C1265.3,1053.7,1265.7,1053.7,1266.1,1053.8z"/>
			<path class="st2" d="M1267.9,1045.8c-0.3,1.5-0.7,2.9-1,4.4c-0.4-0.1-0.8-0.2-1.2-0.3c0.3-1.5,0.7-2.9,1-4.4
				C1267.1,1045.7,1267.5,1045.7,1267.9,1045.8z"/>
			<path class="st2" d="M1269.9,1037.9c-0.4,1.4-0.8,2.9-1.1,4.3c-0.4-0.1-0.8-0.2-1.2-0.3c0.4-1.5,0.7-2.9,1.1-4.4
				C1269.1,1037.7,1269.5,1037.8,1269.9,1037.9z"/>
			<path class="st2" d="M1272.1,1030.1c-0.4,1.4-0.9,2.9-1.3,4.3c-0.4-0.1-0.8-0.2-1.2-0.3c0.4-1.4,0.8-2.9,1.3-4.3
				C1271.4,1029.8,1271.7,1030,1272.1,1030.1z"/>
			<path class="st2" d="M1274.6,1022.3c-0.5,1.4-0.9,2.8-1.4,4.3c-0.4-0.1-0.8-0.2-1.1-0.4c0.5-1.4,0.9-2.9,1.4-4.3
				C1273.8,1022,1274.2,1022.2,1274.6,1022.3z"/>
			<path class="st2" d="M1277.3,1014.6c-0.5,1.4-1,2.8-1.5,4.2c-0.4-0.1-0.8-0.3-1.1-0.4c0.5-1.4,1-2.8,1.5-4.2
				C1276.5,1014.3,1276.9,1014.4,1277.3,1014.6z"/>
			<path class="st2" d="M1280.2,1006.9c-0.6,1.4-1.1,2.8-1.6,4.2c-0.4-0.1-0.7-0.3-1.1-0.4c0.5-1.4,1.1-2.8,1.6-4.2
				C1279.4,1006.6,1279.8,1006.8,1280.2,1006.9z"/>
			<path class="st2" d="M1283.3,999.4c-0.6,1.4-1.2,2.7-1.7,4.1c-0.4-0.2-0.7-0.3-1.1-0.5c0.6-1.4,1.2-2.8,1.8-4.2
				C1282.6,999.1,1282.9,999.2,1283.3,999.4z"/>
			<path class="st2" d="M1286.6,991.9c-0.6,1.4-1.3,2.7-1.9,4.1c-0.4-0.2-0.7-0.3-1.1-0.5c0.6-1.4,1.2-2.7,1.9-4.1
				C1285.9,991.6,1286.3,991.8,1286.6,991.9z"/>
			<path class="st2" d="M1290.2,984.6c-0.7,1.3-1.3,2.7-2,4c-0.4-0.2-0.7-0.3-1.1-0.5c0.7-1.4,1.3-2.7,2-4
				C1289.5,984.2,1289.8,984.4,1290.2,984.6z"/>
			<path class="st2" d="M1294,977.3c-0.7,1.3-1.4,2.6-2.1,4c-0.4-0.2-0.7-0.4-1.1-0.6c0.7-1.3,1.4-2.7,2.1-4
				C1293.3,977,1293.6,977.1,1294,977.3z"/>
			<path class="st2" d="M1298,970.2c-0.7,1.3-1.5,2.6-2.2,3.9c-0.3-0.2-0.7-0.4-1-0.6c0.7-1.3,1.5-2.6,2.2-3.9
				C1297.3,969.8,1297.6,970,1298,970.2z"/>
			<path class="st2" d="M1302.2,963.2c-0.8,1.3-1.6,2.6-2.3,3.8c-0.3-0.2-0.7-0.4-1-0.6c0.8-1.3,1.6-2.6,2.3-3.9
				C1301.5,962.8,1301.8,963,1302.2,963.2z"/>
			<path class="st2" d="M1306.6,956.3c-0.8,1.2-1.6,2.5-2.4,3.8c-0.3-0.2-0.7-0.4-1-0.6c0.8-1.3,1.6-2.5,2.4-3.8
				C1305.9,955.9,1306.2,956.1,1306.6,956.3z"/>
			<path class="st2" d="M1311.1,949.5c-0.9,1.2-1.7,2.5-2.5,3.7c-0.3-0.2-0.7-0.4-1-0.7c0.8-1.2,1.7-2.5,2.6-3.7
				C1310.5,949.1,1310.8,949.3,1311.1,949.5z"/>
			<path class="st2" d="M1315.9,942.9c-0.9,1.2-1.8,2.4-2.7,3.6c-0.3-0.2-0.6-0.5-1-0.7c0.9-1.2,1.8-2.4,2.7-3.6
				C1315.3,942.5,1315.6,942.7,1315.9,942.9z"/>
			<path class="st2" d="M1320.9,936.5c-0.9,1.2-1.8,2.3-2.8,3.5c-0.3-0.2-0.6-0.5-1-0.7c0.9-1.2,1.8-2.4,2.8-3.6
				C1320.3,936,1320.6,936.2,1320.9,936.5z"/>
			<path class="st2" d="M1326.1,930.1c-1,1.1-1.9,2.3-2.9,3.5c-0.3-0.3-0.6-0.5-0.9-0.8c0.9-1.2,1.9-2.3,2.9-3.5
				C1325.5,929.6,1325.8,929.9,1326.1,930.1z"/>
			<path class="st2" d="M1331.4,923.9c-1,1.1-2,2.2-3,3.4c-0.3-0.3-0.6-0.5-0.9-0.8c1-1.1,2-2.3,3-3.4
				C1330.8,923.4,1331.1,923.7,1331.4,923.9z"/>
			<path class="st2" d="M1337,917.9c-1,1.1-2,2.2-3.1,3.3c-0.3-0.3-0.6-0.5-0.9-0.8c1-1.1,2-2.2,3.1-3.3
				C1336.4,917.4,1336.7,917.7,1337,917.9z"/>
			<path class="st2" d="M1342.6,912.1c-1.1,1.1-2.1,2.1-3.1,3.2c-0.3-0.3-0.6-0.6-0.9-0.8c1-1.1,2.1-2.1,3.2-3.2
				C1342.1,911.5,1342.4,911.8,1342.6,912.1z"/>
			<path class="st2" d="M1348.5,906.4c-1.1,1-2.2,2.1-3.2,3.1c-0.3-0.3-0.6-0.6-0.8-0.9c1.1-1.1,2.2-2.1,3.3-3.1
				C1348,905.8,1348.2,906.1,1348.5,906.4z"/>
			<path class="st2" d="M1354.5,900.9c-1.1,1-2.2,2-3.3,3c-0.3-0.3-0.5-0.6-0.8-0.9c1.1-1,2.2-2,3.3-3
				C1354,900.3,1354.3,900.6,1354.5,900.9z"/>
			<path class="st2" d="M1360.7,895.5c-1.1,1-2.3,1.9-3.4,2.9c-0.3-0.3-0.5-0.6-0.8-0.9c1.1-1,2.3-2,3.4-2.9
				C1360.2,894.9,1360.5,895.2,1360.7,895.5z"/>
			<path class="st2" d="M1367.1,890.4c-1.2,0.9-2.3,1.9-3.5,2.8c-0.3-0.3-0.5-0.6-0.8-0.9c1.2-1,2.3-1.9,3.5-2.8
				C1366.6,889.8,1366.8,890.1,1367.1,890.4z"/>
			<path class="st2" d="M1373.6,885.4c-1.2,0.9-2.4,1.8-3.6,2.7c-0.2-0.3-0.5-0.6-0.7-1c1.2-0.9,2.4-1.8,3.6-2.7
				C1373.1,884.8,1373.3,885.1,1373.6,885.4z"/>
			<path class="st2" d="M1380.2,880.7c-1.2,0.9-2.4,1.7-3.7,2.6c-0.2-0.3-0.5-0.6-0.7-1c1.2-0.9,2.4-1.7,3.7-2.6
				C1379.7,880,1380,880.3,1380.2,880.7z"/>
			<path class="st2" d="M1830.9,1186.9c2.5-9.4,4.5-18.9,6-28.5c0.4,0.1,0.8,0.1,1.2,0.2c-1.6,9.6-3.6,19.2-6.1,28.6
				C1831.6,1187.1,1831.3,1187,1830.9,1186.9z"/>
			<path class="st2" d="M1818.7,1223.4c3.7-9,6.9-18.2,9.6-27.5c0.4,0.1,0.8,0.2,1.1,0.3c-2.8,9.4-6,18.6-9.7,27.6
				C1819.4,1223.7,1819.1,1223.6,1818.7,1223.4z"/>
			<path class="st2" d="M1801.9,1258.1c4.8-8.5,9.2-17.2,13.1-26.1c0.4,0.2,0.7,0.3,1.1,0.5c-4,8.9-8.3,17.7-13.1,26.2
				C1802.6,1258.5,1802.3,1258.3,1801.9,1258.1z"/>
			<path class="st2" d="M1780.9,1290.4c5.8-7.8,11.3-15.9,16.3-24.2c0.3,0.2,0.7,0.4,1,0.6c-5.1,8.3-10.5,16.4-16.4,24.3
				C1781.5,1290.8,1781.2,1290.6,1780.9,1290.4z"/>
			<path class="st2" d="M1755.9,1319.6c6.8-7,13.2-14.3,19.3-21.9c0.3,0.3,0.6,0.5,0.9,0.7c-6.1,7.6-12.6,15-19.4,22
				C1756.4,1320.2,1756.2,1319.9,1755.9,1319.6z"/>
			<path class="st2" d="M1727.3,1345.5c7.6-6,14.9-12.5,21.9-19.2c0.3,0.3,0.6,0.6,0.8,0.9c-7,6.8-14.4,13.2-22,19.3
				C1727.8,1346.1,1727.6,1345.8,1727.3,1345.5z"/>
			<path class="st2" d="M1695.7,1367.5c8.3-5,16.4-10.5,24.2-16.3c0.2,0.3,0.5,0.6,0.7,1c-7.8,5.8-15.9,11.3-24.3,16.3
				C1696.1,1368.1,1695.9,1367.8,1695.7,1367.5z"/>
			<path class="st2" d="M1661.5,1385.2c8.9-3.9,17.6-8.3,26.1-13c0.2,0.3,0.4,0.7,0.6,1c-8.5,4.8-17.3,9.1-26.2,13.1
				C1661.8,1385.9,1661.6,1385.6,1661.5,1385.2z"/>
			<path class="st2" d="M1625.3,1398.4c9.3-2.7,18.5-5.9,27.6-9.6c0.2,0.4,0.3,0.7,0.4,1.1c-9.1,3.6-18.3,6.9-27.7,9.6
				C1625.5,1399.2,1625.4,1398.8,1625.3,1398.4z"/>
			<path class="st2" d="M1587.7,1406.9c9.6-1.5,19.1-3.5,28.5-6c0.1,0.4,0.2,0.8,0.3,1.2c-9.4,2.5-19,4.5-28.7,6
				C1587.8,1407.7,1587.8,1407.3,1587.7,1406.9z"/>
			<path class="st2" d="M1472.8,1402.8c9.5,2.2,19.1,3.9,28.7,5.2c-0.1,0.4-0.1,0.8-0.2,1.2c-9.7-1.3-19.3-3-28.8-5.2
				C1472.7,1403.6,1472.8,1403.2,1472.8,1402.8z"/>
			<path class="st2" d="M1436,1391.8c9.1,3.4,18.4,6.3,27.8,8.8c-0.1,0.4-0.2,0.8-0.3,1.2c-9.4-2.5-18.7-5.5-27.9-8.9
				C1435.7,1392.5,1435.8,1392.1,1436,1391.8z"/>
			<path class="st2" d="M1400.8,1376c8.6,4.5,17.4,8.6,26.4,12.3c-0.2,0.4-0.3,0.7-0.5,1.1c-9-3.7-17.9-7.8-26.5-12.4
				C1400.4,1376.7,1400.6,1376.4,1400.8,1376z"/>
			<path class="st2" d="M1367.9,1355.9c7.9,5.6,16.2,10.8,24.6,15.6c-0.2,0.3-0.4,0.7-0.6,1c-8.5-4.8-16.7-10-24.7-15.7
				C1367.5,1356.6,1367.7,1356.2,1367.9,1355.9z"/>
			<path class="st2" d="M1337.9,1331.8c7.2,6.6,14.7,12.8,22.4,18.6c-0.2,0.3-0.5,0.6-0.7,1c-7.8-5.9-15.3-12.1-22.5-18.7
				C1337.4,1332.4,1337.7,1332.1,1337.9,1331.8z"/>
			<path class="st2" d="M1311.2,1304c6.3,7.4,12.9,14.6,19.9,21.3c-0.3,0.3-0.6,0.6-0.8,0.9c-7-6.8-13.6-14-19.9-21.4
				C1310.6,1304.5,1310.9,1304.2,1311.2,1304z"/>
			<path class="st2" d="M1288.4,1273c5.3,8.2,10.9,16.1,17,23.7c-0.3,0.2-0.6,0.5-0.9,0.7c-6.1-7.7-11.7-15.6-17-23.8
				C1287.7,1273.4,1288,1273.2,1288.4,1273z"/>
			<path class="st2" d="M1269.6,1239.4c4.2,8.8,8.8,17.4,13.8,25.7c-0.3,0.2-0.7,0.4-1,0.6c-5-8.4-9.6-17-13.8-25.8
				C1268.9,1239.7,1269.2,1239.5,1269.6,1239.4z"/>
			<path class="st2" d="M1255.3,1203.6c3,9.2,6.5,18.3,10.4,27.3c-0.4,0.2-0.7,0.3-1.1,0.5c-3.9-8.9-7.4-18.1-10.4-27.4
				C1254.6,1203.8,1255,1203.7,1255.3,1203.6z"/>
			<path class="st2" d="M1245.8,1166.3c1.8,9.6,4.1,19,6.8,28.4c-0.4,0.1-0.8,0.2-1.1,0.3c-2.7-9.4-5-18.9-6.8-28.5
				C1245,1166.4,1245.4,1166.3,1245.8,1166.3z"/>
			<path class="st2" d="M1241.1,1128c0.6,9.7,1.6,19.4,3.1,29c-0.4,0.1-0.8,0.1-1.2,0.2c-1.5-9.6-2.6-19.4-3.1-29.1
				C1240.3,1128.1,1240.7,1128,1241.1,1128z"/>
			<path class="st2" d="M1241.3,1089.5c-0.7,9.7-0.9,19.4-0.6,29.2c-0.4,0-0.8,0-1.2,0c-0.3-9.8-0.1-19.5,0.6-29.3
				C1240.5,1089.4,1240.9,1089.5,1241.3,1089.5z"/>
			<path class="st2" d="M1246.4,1051.3c-1.9,9.5-3.4,19.2-4.4,28.8c-0.4,0-0.8-0.1-1.2-0.1c1-9.7,2.4-19.4,4.4-28.9
				C1245.7,1051.2,1246,1051.3,1246.4,1051.3z"/>
			<path class="st2" d="M1256.4,1014.1c-3.1,9.2-5.8,18.6-8,28c-0.4-0.1-0.8-0.2-1.2-0.3c2.2-9.5,4.9-18.9,8-28.1
				C1255.7,1013.9,1256.1,1014,1256.4,1014.1z"/>
			<path class="st2" d="M1271.1,978.5c-4.3,8.7-8.1,17.7-11.5,26.8c-0.4-0.1-0.7-0.3-1.1-0.4c3.4-9.1,7.3-18.1,11.6-26.9
				C1270.4,978.2,1270.8,978.3,1271.1,978.5z"/>
			<path class="st2" d="M1290.3,945.1c-5.4,8.1-10.3,16.5-14.9,25.1c-0.4-0.2-0.7-0.4-1.1-0.6c4.6-8.6,9.6-17,14.9-25.2
				C1289.6,944.6,1289.9,944.9,1290.3,945.1z"/>
			<path class="st2" d="M1678.9,1413.5c55.2-25.2,103.4-66,137.5-116.3c1.8,1.2,3.7,2.5,5.5,3.7c-34.7,51.3-83.9,92.9-140.3,118.6
				C1680.8,1417.6,1679.9,1415.5,1678.9,1413.5z"/>
			<path class="st2" d="M1486.2,1439.1c59.9,9.9,122.7,3,179-19.7c0.8,2.1,1.7,4.1,2.5,6.2c-57.4,23.1-121.5,30.2-182.6,20.1
				C1485.5,1443.5,1485.9,1441.3,1486.2,1439.1z"/>
		</g>
	</g>
	<g class="st3">
		
			<radialGradient id="SVGID_5_" cx="2964.0527" cy="656.1937" r="442.7289" gradientTransform="matrix(-0.6597 -0.7515 0.7515 -0.6597 3005.5967 3770.6909)" gradientUnits="userSpaceOnUse">
			<stop  offset="0.4784" style="stop-color:#FFFFFF"/>
			<stop  offset="0.5233" style="stop-color:#F7F7F7"/>
			<stop  offset="0.5921" style="stop-color:#E2E2E2"/>
			<stop  offset="0.6763" style="stop-color:#BFBFBF"/>
			<stop  offset="0.7728" style="stop-color:#8E8E8E"/>
			<stop  offset="0.8795" style="stop-color:#505050"/>
			<stop  offset="0.9933" style="stop-color:#050505"/>
			<stop  offset="1" style="stop-color:#000000"/>
		</radialGradient>
		<path class="st9" d="M1311.1,1314.2c112.6,128.3,307.9,141,436.2,28.4c128.3-112.6,141-307.9,28.4-436.2
			c-112.6-128.3-307.9-141-436.2-28.4C1211.2,990.7,1198.5,1185.9,1311.1,1314.2z M1485.3,940c22-9.4,45.1-12.9,69.4-10.4
			c46.9,3.1,94.9,26.7,126,62c32.8,37.4,46.3,84.2,45.2,132.9c-1.1,48.9-27.8,93.1-62,126c-18.4,17.4-39.5,29-63.5,34.8
			c-22,9.4-45.1,12.9-69.4,10.4c-46.9-3.1-94.9-26.7-126-62c-32.8-37.4-46.3-84.2-45.2-132.9c1.1-48.9,27.8-93.1,62-126
			C1440.1,957.4,1461.3,945.8,1485.3,940z"/>
		
			<radialGradient id="SVGID_6_" cx="2964.0527" cy="656.1937" r="442.7289" gradientTransform="matrix(-0.6597 -0.7515 0.7515 -0.6597 3005.5967 3770.6909)" gradientUnits="userSpaceOnUse">
			<stop  offset="0.4784" style="stop-color:#FFFFFF"/>
			<stop  offset="0.5233" style="stop-color:#F7F7F7"/>
			<stop  offset="0.5921" style="stop-color:#E2E2E2"/>
			<stop  offset="0.6763" style="stop-color:#BFBFBF"/>
			<stop  offset="0.7728" style="stop-color:#8E8E8E"/>
			<stop  offset="0.8795" style="stop-color:#505050"/>
			<stop  offset="0.9933" style="stop-color:#050505"/>
			<stop  offset="1" style="stop-color:#000000"/>
		</radialGradient>
		<path class="st10" d="M1311.1,1314.2c112.6,128.3,307.9,141,436.2,28.4c128.3-112.6,141-307.9,28.4-436.2
			c-112.6-128.3-307.9-141-436.2-28.4C1211.2,990.7,1198.5,1185.9,1311.1,1314.2z M1485.3,940c22-9.4,45.1-12.9,69.4-10.4
			c46.9,3.1,94.9,26.7,126,62c32.8,37.4,46.3,84.2,45.2,132.9c-1.1,48.9-27.8,93.1-62,126c-18.4,17.4-39.5,29-63.5,34.8
			c-22,9.4-45.1,12.9-69.4,10.4c-46.9-3.1-94.9-26.7-126-62c-32.8-37.4-46.3-84.2-45.2-132.9c1.1-48.9,27.8-93.1,62-126
			C1440.1,957.4,1461.3,945.8,1485.3,940z"/>
		<path class="st6" d="M1248.3,1369.3c143,162.9,391.1,179.1,554,36c162.9-143,179.1-391.1,36-554c-143-162.9-391.1-179.1-554-36
			C1121.4,958.3,1105.3,1206.4,1248.3,1369.3z M1775.6,906.4c112.6,128.3,99.9,323.6-28.4,436.2c-128.3,112.6-323.6,99.9-436.2-28.4
			c-112.6-128.3-99.9-323.6,28.4-436.2C1467.7,765.4,1663,778.1,1775.6,906.4z"/>
		
			<radialGradient id="SVGID_7_" cx="2964.0527" cy="656.1936" r="455.156" gradientTransform="matrix(-0.6597 -0.7515 0.7515 -0.6597 3005.5967 3770.6909)" gradientUnits="userSpaceOnUse">
			<stop  offset="0.3608" style="stop-color:#FFFFFF"/>
			<stop  offset="0.3974" style="stop-color:#FAFAFA"/>
			<stop  offset="0.4425" style="stop-color:#EBEBEB"/>
			<stop  offset="0.4922" style="stop-color:#D2D2D2"/>
			<stop  offset="0.545" style="stop-color:#AFAFAF"/>
			<stop  offset="0.6004" style="stop-color:#828282"/>
			<stop  offset="0.658" style="stop-color:#4B4B4B"/>
			<stop  offset="0.7162" style="stop-color:#0B0B0B"/>
			<stop  offset="0.7255" style="stop-color:#000000"/>
			<stop  offset="0.7613" style="stop-color:#323232"/>
			<stop  offset="0.8101" style="stop-color:#6F6F6F"/>
			<stop  offset="0.8569" style="stop-color:#A3A3A3"/>
			<stop  offset="0.9006" style="stop-color:#CBCBCB"/>
			<stop  offset="0.9403" style="stop-color:#E7E7E7"/>
			<stop  offset="0.9747" style="stop-color:#F9F9F9"/>
			<stop  offset="1" style="stop-color:#FFFFFF"/>
		</radialGradient>
		<path class="st11" d="M1201.3,1410.6c165.8,188.9,453.4,207.6,642.3,41.8c188.9-165.8,207.6-453.4,41.8-642.3
			c-165.8-188.9-453.4-207.6-642.3-41.8C1054.2,934.1,1035.5,1221.7,1201.3,1410.6z M1838.4,851.3c143,162.9,126.9,411-36,554
			c-162.9,143-411,126.9-554-36c-143-162.9-126.9-411,36-554C1447.3,672.2,1695.3,688.4,1838.4,851.3z"/>
	</g>
</g>
<g>
	<g>
		<g>
			<path class="st2" d="M1569.2,938c-72.9-13.1-153.5,26-188.5,91.4c-2.9-1.6-5.8-3.1-8.8-4.7c36.9-69,122-110.2,199-96.5
				C1570.4,931.5,1569.8,934.8,1569.2,938z"/>
			<g>
				<path class="st2" d="M1372.2,1069.4l-0.4-0.1l-95.4-25.5l0.1-0.4c14.1-52.6,47-101.8,92.5-138.7
					c45.5-36.8,100.6-58.7,154.9-61.5l0.5,0l5.1,99.1l-0.4,0c-70.9,3.7-138.3,58.1-156.7,126.7L1372.2,1069.4z M1277.5,1043.1
					l94.1,25.2c9-33.3,29.9-64.5,58.8-87.8c28.8-23.3,63.7-37.2,98.2-39.1l-5-97.3C1412.2,850,1306.6,935.5,1277.5,1043.1z"/>
				<path class="st2" d="M1302.2,1281.4l-0.3-0.4c-35.2-49.5-54.2-110.2-53.6-170.9c0.7-60.7,21-121,57.2-169.7l0.3-0.4l39.4,29.3
					l78.5,58.4l-0.3,0.4c-35.2,47.4-36,119.4-1.8,167.5l0.3,0.4l-16.2,11.5L1302.2,1281.4z M1306,941.4
					c-35.9,48.5-56.1,108.4-56.8,168.8c-0.6,60.4,18.3,120.7,53.2,170l118.3-84.2c-34.1-48.3-33.3-120.3,1.8-167.9L1306,941.4z"/>
				<path class="st2" d="M1818.7,1101.3l-0.4,0l-98.7,4.3l0-0.4c-2.8-62.5-40.1-122.2-95.2-152.1c-55.1-29.8-125.5-28.5-179.4,3.4
					l-0.4,0.2l-50.5-85.4l0.4-0.2c40.6-24,88.3-37.2,137.9-38.1c49.6-0.9,97.7,10.4,139.2,32.9c41.5,22.5,77.3,56.6,103.6,98.6
					c26.3,42,41.3,89.2,43.4,136.3L1818.7,1101.3z M1720.5,1104.7l97.3-4.3c-4.4-96.1-61.9-187.9-146.5-233.7
					c-84.7-45.8-192.9-43.9-275.8,4.9l49.6,83.8c26.3-15.5,57.2-23.9,89.3-24.5c32.3-0.6,63.6,6.8,90.6,21.4
					c27,14.6,50.3,36.8,67.4,64.2C1709.3,1043.7,1719,1074.2,1720.5,1104.7z"/>
				<path class="st2" d="M1509.6,1360.8l-0.4-0.1c-41.5-4.8-82.2-21-117.7-46.9c-35.5-25.9-63.4-59.7-80.7-97.8
					c-17.2-38.1-24.3-81.3-20.3-125.1c3.9-43.8,18.6-85.1,42.3-119.5l0.3-0.4l69.2,47.8l-0.3,0.4c-32.3,46.7-38,110.3-14.6,162.1
					c23.5,51.7,75.1,89.3,131.5,95.9l0.4,0.1L1509.6,1360.8z M1333.2,972.4c-48.3,70.2-56.8,165.7-21.7,243.3
					c35.2,77.6,112.6,134.1,197.3,144.1l9.4-81.7c-27.5-3.3-54.5-14.1-78-31.2c-23.7-17.3-42.2-39.8-53.7-65.1
					c-11.5-25.4-16.2-54.2-13.5-83.3c2.6-29,12.3-56.4,27.9-79.2L1333.2,972.4z"/>
				<path class="st2" d="M1861.4,1057.1l-0.4,0.1l-164.1,28.7l-0.1-0.4c-5.6-31.9-21.1-62.2-43.8-85.3l-0.3-0.3l0.3-0.3l118.9-116.7
					l0.3,0.3c46.1,47,77.8,108.7,89.1,173.5L1861.4,1057.1z M1697.6,1084.8l162.8-28.4c-11.4-64.4-42.8-125.6-88.5-172.3
					l-117.9,115.7C1676.5,1022.9,1691.9,1053,1697.6,1084.8z"/>
				<path class="st2" d="M1614.1,1001.7l-0.4-0.3c-6.2-4.2-12.7-7.9-19.4-11l-0.4-0.2l0.2-0.4l69.7-151.3l0.4,0.2
					c15,6.9,29.7,15.2,43.5,24.6l0.4,0.3l-0.3,0.4L1614.1,1001.7z M1595.1,989.9c6.5,3,12.8,6.6,18.8,10.6l92.9-136.6
					c-13.5-9.2-27.9-17.3-42.6-24.1L1595.1,989.9z"/>
			</g>
			<path class="st2" d="M1422.2,1039.1c-0.4,0.6-0.7,1.2-1.1,1.8c-40.3-25-80.6-50-121-75c0.7-1.2,1.5-2.4,2.3-3.6
				C1342.3,987.9,1382.2,1013.5,1422.2,1039.1z"/>
			<path class="st2" d="M1544.1,957.1c-0.8,0-1.6-0.1-2.4-0.1c0.8-31.5,1.6-63.1,2.4-94.6c1.3,0,2.5,0.1,3.8,0.1
				C1546.7,894,1545.4,925.5,1544.1,957.1z"/>
			<path class="st2" d="M1674,1064.7c-0.2-0.7-0.5-1.4-0.8-2.1c58-21.6,116-43.3,174-64.9c0.6,1.6,1.2,3.1,1.7,4.7
				C1790.7,1023.2,1732.3,1044,1674,1064.7z"/>
			<path class="st2" d="M1670.5,1261.1c65.9-59.2,83.9-167.5,40.7-244.8c-43.3-77.3-144.9-118.7-229.9-93.6
				c-84.9,25.2-147.6,115.2-141.9,203.6c5.9,88.4,79.9,169.4,167.4,183.2c0,0.1,0,0.2,0,0.2c-87.6-13.8-161.7-94.9-167.6-183.4
				c-5.8-88.5,57-178.6,142-203.9c85.1-25.1,186.8,16.3,230.1,93.7c43.2,77.5,25.2,185.8-40.7,245.1
				C1670.6,1261.2,1670.5,1261.1,1670.5,1261.1z"/>
			<path class="st2" d="M1372.5,1082.1c-0.2,0.9-0.3,1.8-0.5,2.6c-0.2,0-0.5-0.1-0.7-0.1c0.2-0.9,0.3-1.8,0.5-2.7
				C1372,1082,1372.3,1082,1372.5,1082.1z"/>
			<path class="st2" d="M1373.4,1077.6c-0.2,0.9-0.4,1.8-0.5,2.6c-0.2,0-0.5-0.1-0.7-0.1c0.2-0.9,0.4-1.8,0.5-2.6
				C1372.9,1077.5,1373.2,1077.6,1373.4,1077.6z"/>
			<path class="st2" d="M1374.4,1073.2c-0.2,0.9-0.4,1.7-0.6,2.6c-0.2-0.1-0.5-0.1-0.7-0.2c0.2-0.9,0.4-1.8,0.6-2.6
				C1374,1073.1,1374.2,1073.2,1374.4,1073.2z"/>
			<path class="st2" d="M1375.6,1068.8c-0.2,0.9-0.5,1.7-0.7,2.6c-0.2-0.1-0.5-0.1-0.7-0.2c0.2-0.9,0.5-1.7,0.7-2.6
				C1375.1,1068.7,1375.3,1068.8,1375.6,1068.8z"/>
			<path class="st2" d="M1376.8,1064.5c-0.3,0.9-0.5,1.7-0.8,2.6c-0.2-0.1-0.5-0.1-0.7-0.2c0.2-0.9,0.5-1.7,0.8-2.6
				C1376.4,1064.4,1376.6,1064.4,1376.8,1064.5z"/>
			<path class="st2" d="M1378.2,1060.2c-0.3,0.9-0.6,1.7-0.8,2.6c-0.2-0.1-0.5-0.1-0.7-0.2c0.3-0.9,0.5-1.7,0.8-2.6
				C1377.7,1060,1378,1060.1,1378.2,1060.2z"/>
			<path class="st2" d="M1379.7,1055.9c-0.3,0.8-0.6,1.7-0.9,2.5c-0.2-0.1-0.5-0.2-0.7-0.2c0.3-0.8,0.6-1.7,0.9-2.5
				C1379.2,1055.7,1379.4,1055.8,1379.7,1055.9z"/>
			<path class="st2" d="M1381.3,1051.7c-0.3,0.8-0.7,1.7-1,2.5c-0.2-0.1-0.5-0.2-0.7-0.3c0.3-0.8,0.6-1.7,1-2.5
				C1380.8,1051.5,1381,1051.6,1381.3,1051.7z"/>
			<path class="st2" d="M1383,1047.5c-0.3,0.8-0.7,1.7-1,2.5c-0.2-0.1-0.4-0.2-0.7-0.3c0.3-0.8,0.7-1.7,1-2.5
				C1382.5,1047.3,1382.8,1047.4,1383,1047.5z"/>
			<path class="st2" d="M1384.8,1043.3c-0.4,0.8-0.7,1.6-1.1,2.5c-0.2-0.1-0.4-0.2-0.7-0.3c0.4-0.8,0.7-1.6,1.1-2.5
				C1384.4,1043.1,1384.6,1043.2,1384.8,1043.3z"/>
			<path class="st2" d="M1386.8,1039.2c-0.4,0.8-0.8,1.6-1.2,2.4c-0.2-0.1-0.4-0.2-0.7-0.3c0.4-0.8,0.8-1.6,1.2-2.4
				C1386.3,1039,1386.5,1039.1,1386.8,1039.2z"/>
			<path class="st2" d="M1388.8,1035.2c-0.4,0.8-0.8,1.6-1.2,2.4c-0.2-0.1-0.4-0.2-0.6-0.3c0.4-0.8,0.8-1.6,1.2-2.4
				C1388.4,1035,1388.6,1035.1,1388.8,1035.2z"/>
			<path class="st2" d="M1391,1031.2c-0.4,0.8-0.9,1.6-1.3,2.4c-0.2-0.1-0.4-0.2-0.6-0.3c0.4-0.8,0.9-1.6,1.3-2.4
				C1390.5,1031,1390.7,1031.1,1391,1031.2z"/>
			<path class="st2" d="M1393.2,1027.3c-0.5,0.8-0.9,1.5-1.4,2.3c-0.2-0.1-0.4-0.2-0.6-0.4c0.5-0.8,0.9-1.6,1.4-2.3
				C1392.8,1027.1,1393,1027.2,1393.2,1027.3z"/>
			<path class="st2" d="M1395.6,1023.4c-0.5,0.8-0.9,1.5-1.4,2.3c-0.2-0.1-0.4-0.3-0.6-0.4c0.5-0.8,0.9-1.5,1.4-2.3
				C1395.2,1023.2,1395.4,1023.3,1395.6,1023.4z"/>
			<path class="st2" d="M1398,1019.6c-0.5,0.7-1,1.5-1.5,2.2c-0.2-0.1-0.4-0.3-0.6-0.4c0.5-0.8,1-1.5,1.5-2.3
				C1397.6,1019.4,1397.8,1019.5,1398,1019.6z"/>
			<path class="st2" d="M1400.6,1015.9c-0.5,0.7-1,1.5-1.5,2.2c-0.2-0.1-0.4-0.3-0.6-0.4c0.5-0.7,1-1.5,1.5-2.2
				C1400.2,1015.6,1400.4,1015.8,1400.6,1015.9z"/>
			<path class="st2" d="M1403.3,1012.3c-0.5,0.7-1.1,1.4-1.6,2.2c-0.2-0.1-0.4-0.3-0.6-0.4c0.5-0.7,1.1-1.5,1.6-2.2
				C1402.9,1012,1403.1,1012.1,1403.3,1012.3z"/>
			<path class="st2" d="M1406.1,1008.7c-0.6,0.7-1.1,1.4-1.7,2.1c-0.2-0.1-0.4-0.3-0.6-0.4c0.5-0.7,1.1-1.4,1.7-2.1
				C1405.7,1008.4,1405.9,1008.5,1406.1,1008.7z"/>
			<path class="st2" d="M1408.9,1005.2c-0.6,0.7-1.2,1.4-1.7,2.1c-0.2-0.2-0.4-0.3-0.6-0.5c0.6-0.7,1.1-1.4,1.7-2.1
				C1408.5,1004.9,1408.7,1005,1408.9,1005.2z"/>
			<path class="st2" d="M1411.9,1001.7c-0.6,0.7-1.2,1.3-1.8,2c-0.2-0.2-0.4-0.3-0.6-0.5c0.6-0.7,1.2-1.4,1.8-2
				C1411.5,1001.4,1411.7,1001.6,1411.9,1001.7z"/>
			<path class="st2" d="M1414.9,998.4c-0.6,0.7-1.2,1.3-1.8,2c-0.2-0.2-0.4-0.3-0.5-0.5c0.6-0.7,1.2-1.3,1.8-2
				C1414.6,998.1,1414.7,998.2,1414.9,998.4z"/>
			<path class="st2" d="M1418.1,995.1c-0.6,0.6-1.3,1.3-1.9,1.9c-0.2-0.2-0.4-0.3-0.5-0.5c0.6-0.7,1.2-1.3,1.9-1.9
				C1417.7,994.8,1417.9,995,1418.1,995.1z"/>
			<path class="st2" d="M1421.3,991.9c-0.6,0.6-1.3,1.2-1.9,1.9c-0.2-0.2-0.3-0.3-0.5-0.5c0.6-0.6,1.3-1.3,1.9-1.9
				C1420.9,991.6,1421.1,991.8,1421.3,991.9z"/>
			<path class="st2" d="M1424.6,988.9c-0.7,0.6-1.3,1.2-2,1.8c-0.2-0.2-0.3-0.4-0.5-0.5c0.7-0.6,1.3-1.2,2-1.8
				C1424.3,988.5,1424.4,988.7,1424.6,988.9z"/>
			<path class="st2" d="M1428,985.9c-0.7,0.6-1.4,1.2-2,1.8c-0.2-0.2-0.3-0.4-0.5-0.5c0.7-0.6,1.3-1.2,2-1.8
				C1427.7,985.5,1427.8,985.7,1428,985.9z"/>
			<path class="st2" d="M1431.4,982.9c-0.7,0.6-1.4,1.1-2.1,1.7c-0.2-0.2-0.3-0.4-0.5-0.6c0.7-0.6,1.4-1.2,2.1-1.7
				C1431.1,982.6,1431.3,982.8,1431.4,982.9z"/>
			<path class="st2" d="M1435,980.1c-0.7,0.5-1.4,1.1-2.1,1.7c-0.2-0.2-0.3-0.4-0.5-0.6c0.7-0.6,1.4-1.1,2.1-1.7
				C1434.7,979.7,1434.8,979.9,1435,980.1z"/>
			<path class="st2" d="M1438.6,977.4c-0.7,0.5-1.4,1.1-2.2,1.6c-0.1-0.2-0.3-0.4-0.4-0.6c0.7-0.5,1.4-1.1,2.2-1.6
				C1438.3,977,1438.5,977.2,1438.6,977.4z"/>
			<path class="st2" d="M1442.3,974.8c-0.7,0.5-1.5,1-2.2,1.5c-0.1-0.2-0.3-0.4-0.4-0.6c0.7-0.5,1.5-1,2.2-1.6
				C1442,974.4,1442.2,974.6,1442.3,974.8z"/>
			<path class="st2" d="M1446.1,972.3c-0.8,0.5-1.5,1-2.2,1.5c-0.1-0.2-0.3-0.4-0.4-0.6c0.7-0.5,1.5-1,2.3-1.5
				C1445.8,971.9,1445.9,972.1,1446.1,972.3z"/>
			<path class="st2" d="M1449.9,969.9c-0.8,0.5-1.5,0.9-2.3,1.4c-0.1-0.2-0.3-0.4-0.4-0.6c0.8-0.5,1.5-1,2.3-1.4
				C1449.6,969.4,1449.8,969.7,1449.9,969.9z"/>
			<path class="st2" d="M1453.8,967.5c-0.8,0.4-1.5,0.9-2.3,1.4c-0.1-0.2-0.2-0.4-0.4-0.6c0.8-0.5,1.5-0.9,2.3-1.4
				C1453.5,967.1,1453.7,967.3,1453.8,967.5z"/>
			<path class="st2" d="M1457.7,965.3c-0.8,0.4-1.6,0.9-2.4,1.3c-0.1-0.2-0.2-0.4-0.4-0.6c0.8-0.4,1.6-0.9,2.4-1.3
				C1457.5,964.9,1457.6,965.1,1457.7,965.3z"/>
			<path class="st2" d="M1461.8,963.2c-0.8,0.4-1.6,0.8-2.4,1.2c-0.1-0.2-0.2-0.4-0.3-0.6c0.8-0.4,1.6-0.8,2.4-1.2
				C1461.5,962.8,1461.6,963,1461.8,963.2z"/>
			<path class="st2" d="M1465.8,961.2c-0.8,0.4-1.6,0.8-2.4,1.2c-0.1-0.2-0.2-0.4-0.3-0.7c0.8-0.4,1.6-0.8,2.4-1.2
				C1465.6,960.8,1465.7,961,1465.8,961.2z"/>
			<path class="st2" d="M1469.9,959.4c-0.8,0.4-1.6,0.7-2.5,1.1c-0.1-0.2-0.2-0.4-0.3-0.7c0.8-0.4,1.6-0.7,2.5-1.1
				C1469.7,958.9,1469.8,959.1,1469.9,959.4z"/>
			<path class="st2" d="M1474.1,957.6c-0.8,0.3-1.7,0.7-2.5,1c-0.1-0.2-0.2-0.4-0.3-0.7c0.8-0.4,1.7-0.7,2.5-1
				C1473.9,957.1,1474,957.4,1474.1,957.6z"/>
			<path class="st2" d="M1478.3,955.9c-0.8,0.3-1.7,0.6-2.5,1c-0.1-0.2-0.2-0.5-0.3-0.7c0.8-0.3,1.7-0.7,2.5-1
				C1478.1,955.5,1478.2,955.7,1478.3,955.9z"/>
			<path class="st2" d="M1482.6,954.4c-0.8,0.3-1.7,0.6-2.5,0.9c-0.1-0.2-0.2-0.5-0.3-0.7c0.8-0.3,1.7-0.6,2.5-0.9
				C1482.4,953.9,1482.5,954.2,1482.6,954.4z"/>
			<path class="st2" d="M1486.9,953c-0.9,0.3-1.7,0.5-2.6,0.8c-0.1-0.2-0.2-0.5-0.2-0.7c0.9-0.3,1.7-0.6,2.6-0.8
				C1486.7,952.5,1486.8,952.7,1486.9,953z"/>
			<path class="st2" d="M1491.2,951.7c-0.9,0.2-1.7,0.5-2.6,0.8c-0.1-0.2-0.1-0.5-0.2-0.7c0.9-0.3,1.7-0.5,2.6-0.8
				C1491.1,951.2,1491.1,951.4,1491.2,951.7z"/>
			<path class="st2" d="M1495.6,950.5c-0.9,0.2-1.7,0.5-2.6,0.7c-0.1-0.2-0.1-0.5-0.2-0.7c0.9-0.2,1.7-0.5,2.6-0.7
				C1495.5,950,1495.5,950.2,1495.6,950.5z"/>
			<path class="st2" d="M1500,949.4c-0.9,0.2-1.7,0.4-2.6,0.6c-0.1-0.2-0.1-0.5-0.2-0.7c0.9-0.2,1.7-0.4,2.6-0.6
				C1499.9,948.9,1499.9,949.2,1500,949.4z"/>
			<path class="st2" d="M1504.4,948.4c-0.9,0.2-1.8,0.4-2.6,0.6c-0.1-0.2-0.1-0.5-0.2-0.7c0.9-0.2,1.8-0.4,2.6-0.6
				C1504.3,948,1504.3,948.2,1504.4,948.4z"/>
			<path class="st2" d="M1508.8,947.6c-0.9,0.2-1.8,0.3-2.6,0.5c0-0.2-0.1-0.5-0.1-0.7c0.9-0.2,1.8-0.3,2.7-0.5
				C1508.8,947.1,1508.8,947.4,1508.8,947.6z"/>
			<path class="st2" d="M1513.3,946.9c-0.9,0.1-1.8,0.3-2.7,0.4c0-0.2-0.1-0.5-0.1-0.7c0.9-0.1,1.8-0.3,2.7-0.4
				C1513.2,946.4,1513.3,946.6,1513.3,946.9z"/>
			<path class="st2" d="M1517.8,946.3c-0.9,0.1-1.8,0.2-2.7,0.3c0-0.2-0.1-0.5-0.1-0.7c0.9-0.1,1.8-0.2,2.7-0.3
				C1517.7,945.8,1517.8,946,1517.8,946.3z"/>
			<path class="st2" d="M1522.3,945.8c-0.9,0.1-1.8,0.2-2.7,0.3c0-0.2-0.1-0.5-0.1-0.7c0.9-0.1,1.8-0.2,2.7-0.3
				C1522.3,945.3,1522.3,945.6,1522.3,945.8z"/>
			<path class="st2" d="M1526.8,945.4c-0.9,0.1-1.8,0.1-2.7,0.2c0-0.2,0-0.5-0.1-0.7c0.9-0.1,1.8-0.1,2.7-0.2
				C1526.8,945,1526.8,945.2,1526.8,945.4z"/>
			<path class="st2" d="M1531.3,945.2c-0.9,0-1.8,0.1-2.7,0.1c0-0.2,0-0.5,0-0.7c0.9,0,1.8-0.1,2.7-0.1
				C1531.3,944.7,1531.3,945,1531.3,945.2z"/>
			<path class="st2" d="M1535.9,945.1c-0.9,0-1.8,0-2.7,0.1c0-0.2,0-0.5,0-0.7c0.9,0,1.8,0,2.7-0.1
				C1535.9,944.6,1535.9,944.9,1535.9,945.1z"/>
			<path class="st2" d="M1540.4,945.1c-0.9,0-1.8,0-2.7,0c0-0.2,0-0.5,0-0.7c0.9,0,1.8,0,2.7,0
				C1540.4,944.6,1540.4,944.9,1540.4,945.1z"/>
			<path class="st2" d="M1681.5,1026c-0.5-0.8-0.9-1.5-1.4-2.3c0.2-0.1,0.4-0.3,0.6-0.4c0.5,0.8,1,1.5,1.4,2.3
				C1681.9,1025.8,1681.7,1025.9,1681.5,1026z"/>
			<path class="st2" d="M1684,1030.3c-0.4-0.8-0.9-1.6-1.3-2.3c0.2-0.1,0.4-0.2,0.6-0.4c0.5,0.8,0.9,1.6,1.4,2.3
				C1684.4,1030,1684.2,1030.2,1684,1030.3z"/>
			<path class="st2" d="M1686.3,1034.6c-0.4-0.8-0.8-1.6-1.3-2.4c0.2-0.1,0.4-0.2,0.6-0.4c0.4,0.8,0.9,1.6,1.3,2.4
				C1686.8,1034.4,1686.5,1034.5,1686.3,1034.6z"/>
			<path class="st2" d="M1688.6,1039c-0.4-0.8-0.8-1.6-1.2-2.4c0.2-0.1,0.4-0.2,0.6-0.3c0.4,0.8,0.8,1.6,1.2,2.4
				C1689,1038.8,1688.8,1038.9,1688.6,1039z"/>
			<path class="st2" d="M1690.7,1043.5c-0.4-0.8-0.8-1.6-1.1-2.4c0.2-0.1,0.4-0.2,0.7-0.3c0.4,0.8,0.8,1.6,1.1,2.4
				C1691.1,1043.3,1690.9,1043.4,1690.7,1043.5z"/>
			<path class="st2" d="M1692.7,1048c-0.3-0.8-0.7-1.6-1.1-2.5c0.2-0.1,0.4-0.2,0.7-0.3c0.4,0.8,0.7,1.7,1.1,2.5
				C1693.1,1047.8,1692.9,1047.9,1692.7,1048z"/>
			<path class="st2" d="M1694.5,1052.6c-0.3-0.8-0.7-1.7-1-2.5c0.2-0.1,0.5-0.2,0.7-0.3c0.3,0.8,0.7,1.7,1,2.5
				C1695,1052.4,1694.8,1052.5,1694.5,1052.6z"/>
			<path class="st2" d="M1696.2,1057.3c-0.3-0.8-0.6-1.7-0.9-2.5c0.2-0.1,0.5-0.2,0.7-0.3c0.3,0.8,0.6,1.7,0.9,2.5
				C1696.7,1057.1,1696.5,1057.2,1696.2,1057.3z"/>
			<path class="st2" d="M1697.8,1061.9c-0.3-0.9-0.6-1.7-0.8-2.6c0.2-0.1,0.5-0.2,0.7-0.2c0.3,0.9,0.6,1.7,0.8,2.6
				C1698.3,1061.8,1698.1,1061.9,1697.8,1061.9z"/>
			<path class="st2" d="M1699.3,1066.7c-0.2-0.9-0.5-1.7-0.8-2.6c0.2-0.1,0.5-0.1,0.7-0.2c0.3,0.9,0.5,1.7,0.8,2.6
				C1699.7,1066.5,1699.5,1066.6,1699.3,1066.7z"/>
			<path class="st2" d="M1700.6,1071.4c-0.2-0.9-0.5-1.7-0.7-2.6c0.2-0.1,0.5-0.1,0.7-0.2c0.2,0.9,0.5,1.7,0.7,2.6
				C1701,1071.3,1700.8,1071.4,1700.6,1071.4z"/>
			<path class="st2" d="M1701.7,1076.3c-0.2-0.9-0.4-1.7-0.6-2.6c0.2-0.1,0.5-0.1,0.7-0.2c0.2,0.9,0.4,1.7,0.6,2.6
				C1702.2,1076.1,1702,1076.2,1701.7,1076.3z"/>
			<path class="st2" d="M1702.7,1081.1c-0.2-0.9-0.4-1.8-0.5-2.6c0.2,0,0.5-0.1,0.7-0.1c0.2,0.9,0.4,1.8,0.5,2.6
				C1703.2,1081,1703,1081,1702.7,1081.1z"/>
			<path class="st2" d="M1703.6,1086c-0.1-0.9-0.3-1.8-0.5-2.6c0.2,0,0.5-0.1,0.7-0.1c0.2,0.9,0.3,1.8,0.5,2.7
				C1704.1,1085.9,1703.8,1085.9,1703.6,1086z"/>
			<path class="st2" d="M1704.3,1090.9c-0.1-0.9-0.2-1.8-0.4-2.7c0.2,0,0.5-0.1,0.7-0.1c0.1,0.9,0.3,1.8,0.4,2.7
				C1704.8,1090.8,1704.6,1090.8,1704.3,1090.9z"/>
			<path class="st2" d="M1704.9,1095.8c-0.1-0.9-0.2-1.8-0.3-2.7c0.2,0,0.5-0.1,0.7-0.1c0.1,0.9,0.2,1.8,0.3,2.7
				C1705.4,1095.7,1705.2,1095.7,1704.9,1095.8z"/>
			<path class="st2" d="M1705.4,1100.7c-0.1-0.9-0.1-1.8-0.2-2.7c0.2,0,0.5,0,0.7-0.1c0.1,0.9,0.2,1.8,0.2,2.7
				C1705.9,1100.7,1705.6,1100.7,1705.4,1100.7z"/>
			<path class="st2" d="M1705.7,1105.6c0-0.9-0.1-1.8-0.1-2.7c0.2,0,0.5,0,0.7,0c0.1,0.9,0.1,1.8,0.1,2.7
				C1706.1,1105.6,1705.9,1105.6,1705.7,1105.6z"/>
			<path class="st2" d="M1705.8,1110.6c0-0.9,0-1.8-0.1-2.7c0.2,0,0.5,0,0.7,0c0,0.9,0,1.8,0.1,2.7
				C1706.3,1110.6,1706.1,1110.6,1705.8,1110.6z"/>
			<path class="st2" d="M1705.8,1115.5c0-0.9,0-1.8,0-2.7c0.2,0,0.5,0,0.7,0c0,0.9,0,1.8,0,2.7
				C1706.3,1115.5,1706.1,1115.5,1705.8,1115.5z"/>
			<path class="st2" d="M1707.7,1120.5c0-0.9,0.1-1.8,0.1-2.7c0.2,0,0.5,0,0.7,0c0,0.9-0.1,1.8-0.1,2.7
				C1708.2,1120.6,1707.9,1120.6,1707.7,1120.5z"/>
			<path class="st2" d="M1707.4,1125.5c0.1-0.9,0.1-1.8,0.2-2.7c0.2,0,0.5,0,0.7,0c0,0.9-0.1,1.8-0.2,2.7
				C1707.9,1125.5,1707.6,1125.5,1707.4,1125.5z"/>
			<path class="st2" d="M1707,1130.4c0.1-0.9,0.2-1.8,0.3-2.7c0.2,0,0.5,0,0.7,0.1c-0.1,0.9-0.2,1.8-0.3,2.7
				C1707.4,1130.5,1707.2,1130.5,1707,1130.4z"/>
			<path class="st2" d="M1706.4,1135.4c0.1-0.9,0.2-1.8,0.3-2.7c0.2,0,0.5,0.1,0.7,0.1c-0.1,0.9-0.2,1.8-0.3,2.7
				C1706.9,1135.4,1706.6,1135.4,1706.4,1135.4z"/>
			<path class="st2" d="M1705.7,1140.3c0.1-0.9,0.3-1.8,0.4-2.7c0.2,0,0.5,0.1,0.7,0.1c-0.1,0.9-0.3,1.8-0.4,2.7
				C1706.1,1140.3,1705.9,1140.3,1705.7,1140.3z"/>
			<path class="st2" d="M1704.8,1145.1c0.2-0.9,0.3-1.8,0.5-2.7c0.2,0,0.5,0.1,0.7,0.1c-0.2,0.9-0.3,1.8-0.5,2.7
				C1705.3,1145.2,1705,1145.2,1704.8,1145.1z"/>
			<path class="st2" d="M1703.8,1150c0.2-0.9,0.4-1.8,0.6-2.7c0.2,0,0.5,0.1,0.7,0.1c-0.2,0.9-0.4,1.8-0.6,2.7
				C1704.3,1150.1,1704,1150.1,1703.8,1150z"/>
			<path class="st2" d="M1702.7,1154.8c0.2-0.9,0.4-1.8,0.6-2.6c0.2,0.1,0.5,0.1,0.7,0.2c-0.2,0.9-0.4,1.8-0.6,2.7
				C1703.1,1154.9,1702.9,1154.9,1702.7,1154.8z"/>
			<path class="st2" d="M1701.4,1159.6c0.2-0.9,0.5-1.7,0.7-2.6c0.2,0.1,0.5,0.1,0.7,0.2c-0.2,0.9-0.5,1.8-0.7,2.6
				C1701.8,1159.7,1701.6,1159.7,1701.4,1159.6z"/>
			<path class="st2" d="M1700,1164.4c0.3-0.9,0.5-1.7,0.8-2.6c0.2,0.1,0.5,0.1,0.7,0.2c-0.3,0.9-0.5,1.7-0.8,2.6
				C1700.4,1164.5,1700.2,1164.4,1700,1164.4z"/>
			<path class="st2" d="M1698.4,1169.1c0.3-0.9,0.6-1.7,0.9-2.6c0.2,0.1,0.5,0.2,0.7,0.2c-0.3,0.9-0.6,1.7-0.9,2.6
				C1698.9,1169.2,1698.6,1169.1,1698.4,1169.1z"/>
			<path class="st2" d="M1696.7,1173.7c0.3-0.8,0.6-1.7,0.9-2.5c0.2,0.1,0.5,0.2,0.7,0.2c-0.3,0.9-0.6,1.7-1,2.6
				C1697.2,1173.9,1696.9,1173.8,1696.7,1173.7z"/>
			<path class="st2" d="M1694.9,1178.3c0.3-0.8,0.7-1.7,1-2.5c0.2,0.1,0.5,0.2,0.7,0.3c-0.3,0.8-0.7,1.7-1,2.5
				C1695.3,1178.5,1695.1,1178.4,1694.9,1178.3z"/>
			<path class="st2" d="M1692.9,1182.9c0.4-0.8,0.7-1.7,1.1-2.5c0.2,0.1,0.4,0.2,0.7,0.3c-0.4,0.8-0.7,1.7-1.1,2.5
				C1693.4,1183.1,1693.1,1183,1692.9,1182.9z"/>
			<path class="st2" d="M1690.8,1187.4c0.4-0.8,0.8-1.6,1.2-2.5c0.2,0.1,0.4,0.2,0.7,0.3c-0.4,0.8-0.8,1.7-1.2,2.5
				C1691.2,1187.6,1691,1187.5,1690.8,1187.4z"/>
			<path class="st2" d="M1688.6,1191.8c0.4-0.8,0.8-1.6,1.2-2.4c0.2,0.1,0.4,0.2,0.7,0.3c-0.4,0.8-0.8,1.6-1.2,2.4
				C1689,1192,1688.8,1191.9,1688.6,1191.8z"/>
			<path class="st2" d="M1686.2,1196.2c0.4-0.8,0.9-1.6,1.3-2.4c0.2,0.1,0.4,0.2,0.6,0.3c-0.4,0.8-0.9,1.6-1.3,2.4
				C1686.7,1196.4,1686.4,1196.3,1686.2,1196.2z"/>
			<path class="st2" d="M1683.8,1200.5c0.5-0.8,0.9-1.6,1.4-2.3c0.2,0.1,0.4,0.2,0.6,0.4c-0.5,0.8-0.9,1.6-1.4,2.4
				C1684.2,1200.7,1684,1200.6,1683.8,1200.5z"/>
			<path class="st2" d="M1681.1,1204.7c0.5-0.8,1-1.5,1.4-2.3c0.2,0.1,0.4,0.3,0.6,0.4c-0.5,0.8-1,1.5-1.5,2.3
				C1681.6,1204.9,1681.4,1204.8,1681.1,1204.7z"/>
			<path class="st2" d="M1678.4,1208.8c0.5-0.8,1-1.5,1.5-2.3c0.2,0.1,0.4,0.3,0.6,0.4c-0.5,0.8-1,1.5-1.5,2.3
				C1678.8,1209.1,1678.6,1209,1678.4,1208.8z"/>
			<path class="st2" d="M1675.6,1212.9c0.5-0.7,1.1-1.5,1.6-2.2c0.2,0.1,0.4,0.3,0.6,0.4c-0.5,0.7-1.1,1.5-1.6,2.2
				C1676,1213.2,1675.8,1213,1675.6,1212.9z"/>
			<path class="st2" d="M1672.6,1216.9c0.6-0.7,1.1-1.4,1.6-2.2c0.2,0.1,0.4,0.3,0.6,0.4c-0.5,0.7-1.1,1.5-1.6,2.2
				C1673,1217.2,1672.8,1217,1672.6,1216.9z"/>
			<path class="st2" d="M1669.5,1220.7c0.6-0.7,1.1-1.4,1.7-2.1c0.2,0.1,0.4,0.3,0.6,0.4c-0.6,0.7-1.1,1.4-1.7,2.1
				C1669.9,1221,1669.7,1220.9,1669.5,1220.7z"/>
			<path class="st2" d="M1666.3,1224.5c0.6-0.7,1.2-1.4,1.8-2.1c0.2,0.2,0.4,0.3,0.6,0.5c-0.6,0.7-1.2,1.4-1.8,2.1
				C1666.7,1224.9,1666.5,1224.7,1666.3,1224.5z"/>
			<path class="st2" d="M1663,1228.2c0.6-0.7,1.2-1.3,1.8-2c0.2,0.2,0.4,0.3,0.5,0.5c-0.6,0.7-1.2,1.4-1.8,2
				C1663.4,1228.6,1663.2,1228.4,1663,1228.2z"/>
			<path class="st2" d="M1659.6,1231.8c0.6-0.6,1.3-1.3,1.9-2c0.2,0.2,0.4,0.3,0.5,0.5c-0.6,0.7-1.3,1.3-1.9,2
				C1660,1232.2,1659.8,1232,1659.6,1231.8z"/>
			<path class="st2" d="M1656.1,1235.3c0.7-0.6,1.3-1.3,1.9-1.9c0.2,0.2,0.3,0.3,0.5,0.5c-0.6,0.6-1.3,1.3-1.9,1.9
				C1656.5,1235.7,1656.3,1235.5,1656.1,1235.3z"/>
			<path class="st2" d="M1652.5,1238.7c0.7-0.6,1.3-1.2,2-1.9c0.2,0.2,0.3,0.4,0.5,0.5c-0.7,0.6-1.3,1.2-2,1.9
				C1652.9,1239.1,1652.7,1238.9,1652.5,1238.7z"/>
			<path class="st2" d="M1648.8,1242c0.7-0.6,1.4-1.2,2-1.8c0.2,0.2,0.3,0.4,0.5,0.5c-0.7,0.6-1.4,1.2-2.1,1.8
				C1649.1,1242.4,1649,1242.2,1648.8,1242z"/>
			<path class="st2" d="M1645,1245.2c0.7-0.6,1.4-1.1,2.1-1.7c0.2,0.2,0.3,0.4,0.5,0.6c-0.7,0.6-1.4,1.2-2.1,1.7
				C1645.3,1245.6,1645.2,1245.4,1645,1245.2z"/>
			<path class="st2" d="M1641.1,1248.3c0.7-0.6,1.4-1.1,2.1-1.7c0.1,0.2,0.3,0.4,0.5,0.6c-0.7,0.6-1.4,1.1-2.2,1.7
				C1641.4,1248.7,1641.3,1248.5,1641.1,1248.3z"/>
			<path class="st2" d="M1637.1,1251.2c0.7-0.5,1.5-1.1,2.2-1.6c0.1,0.2,0.3,0.4,0.4,0.6c-0.7,0.5-1.5,1.1-2.2,1.6
				C1637.4,1251.6,1637.3,1251.4,1637.1,1251.2z"/>
			<path class="st2" d="M1633.1,1254.1c0.7-0.5,1.5-1,2.2-1.5c0.1,0.2,0.3,0.4,0.4,0.6c-0.7,0.5-1.5,1-2.3,1.6
				C1633.3,1254.5,1633.2,1254.3,1633.1,1254.1z"/>
			<path class="st2" d="M1628.9,1256.8c0.8-0.5,1.5-1,2.3-1.5c0.1,0.2,0.3,0.4,0.4,0.6c-0.8,0.5-1.5,1-2.3,1.5
				C1629.2,1257.2,1629.1,1257,1628.9,1256.8z"/>
			<path class="st2" d="M1363.8,1059.3c-1.8,5.6-3.2,11.4-4.4,17.1c-0.2,0-0.5-0.1-0.7-0.1c1.2-5.8,2.7-11.5,4.4-17.2
				C1363.3,1059.1,1363.5,1059.2,1363.8,1059.3z"/>
			<path class="st2" d="M1372.1,1037.4c-2.5,5.4-4.7,10.9-6.6,16.4c-0.2-0.1-0.5-0.2-0.7-0.2c1.9-5.6,4.1-11.1,6.6-16.5
				C1371.7,1037.2,1371.9,1037.3,1372.1,1037.4z"/>
			<path class="st2" d="M1383.2,1016.8c-3.1,5-6,10.2-8.6,15.5c-0.2-0.1-0.4-0.2-0.7-0.3c2.6-5.3,5.5-10.5,8.7-15.5
				C1382.8,1016.6,1383,1016.7,1383.2,1016.8z"/>
			<path class="st2" d="M1396.8,997.8c-3.7,4.6-7.3,9.3-10.5,14.2c-0.2-0.1-0.4-0.3-0.6-0.4c3.3-4.9,6.8-9.7,10.6-14.3
				C1396.4,997.5,1396.6,997.7,1396.8,997.8z"/>
			<path class="st2" d="M1412.8,980.7c-4.3,4.1-8.4,8.3-12.3,12.8c-0.2-0.2-0.4-0.3-0.5-0.5c3.9-4.5,8-8.7,12.3-12.8
				C1412.4,980.4,1412.6,980.6,1412.8,980.7z"/>
			<path class="st2" d="M1430.8,965.8c-4.8,3.5-9.4,7.2-13.8,11.1c-0.2-0.2-0.3-0.4-0.5-0.5c4.4-3.9,9.1-7.6,13.9-11.1
				C1430.5,965.4,1430.6,965.6,1430.8,965.8z"/>
			<path class="st2" d="M1450.5,953.3c-5.2,2.8-10.2,5.9-15.1,9.2c-0.1-0.2-0.3-0.4-0.4-0.6c4.9-3.3,10-6.4,15.2-9.3
				C1450.3,952.9,1450.4,953.1,1450.5,953.3z"/>
			<path class="st2" d="M1471.7,943.5c-5.5,2.1-10.9,4.5-16.2,7.2c-0.1-0.2-0.2-0.4-0.3-0.6c5.3-2.7,10.7-5.1,16.2-7.2
				C1471.5,943,1471.6,943.2,1471.7,943.5z"/>
			<path class="st2" d="M1494,936.4c-5.7,1.4-11.4,3.1-17,5.1c-0.1-0.2-0.2-0.5-0.2-0.7c5.6-2,11.3-3.7,17-5.1
				C1493.9,935.9,1493.9,936.2,1494,936.4z"/>
			<path class="st2" d="M1517,932.3c-5.9,0.7-11.7,1.6-17.5,2.9c0-0.2-0.1-0.5-0.2-0.7c5.8-1.2,11.6-2.2,17.5-2.9
				C1517,931.8,1517,932,1517,932.3z"/>
			<path class="st2" d="M1586.5,937.8c-5.7-1.6-11.4-2.9-17.3-3.9c0-0.2,0.1-0.5,0.1-0.7c5.8,1,11.6,2.3,17.3,3.9
				C1586.7,937.3,1586.6,937.5,1586.5,937.8z"/>
			<path class="st2" d="M1608.6,945.5c-5.4-2.3-11-4.3-16.6-6.1c0.1-0.2,0.1-0.5,0.2-0.7c5.7,1.8,11.2,3.8,16.7,6.1
				C1608.8,945,1608.7,945.2,1608.6,945.5z"/>
			<path class="st2" d="M1629.5,955.9c-5.1-3-10.3-5.7-15.7-8.2c0.1-0.2,0.2-0.4,0.3-0.7c5.4,2.5,10.6,5.2,15.8,8.2
				C1629.8,955.5,1629.6,955.7,1629.5,955.9z"/>
			<path class="st2" d="M1648.9,969c-4.7-3.6-9.5-7-14.5-10.1c0.1-0.2,0.3-0.4,0.4-0.6c5,3.1,9.9,6.5,14.6,10.2
				C1649.2,968.6,1649.1,968.8,1648.9,969z"/>
			<path class="st2" d="M1666.5,984.4c-4.2-4.2-8.6-8.1-13.1-11.9c0.2-0.2,0.3-0.4,0.5-0.6c4.6,3.8,9,7.7,13.2,11.9
				C1666.8,984.1,1666.6,984.2,1666.5,984.4z"/>
			<path class="st2" d="M1681.9,1002c-3.6-4.7-7.4-9.2-11.5-13.5c0.2-0.2,0.4-0.3,0.5-0.5c4.1,4.3,7.9,8.8,11.5,13.5
				C1682.3,1001.7,1682.1,1001.8,1681.9,1002z"/>
			<path class="st2" d="M1695,1021.3c-3-5.1-6.2-10-9.7-14.8c0.2-0.1,0.4-0.3,0.6-0.4c3.5,4.8,6.7,9.8,9.7,14.9
				C1695.4,1021.1,1695.2,1021.2,1695,1021.3z"/>
			<path class="st2" d="M1705.4,1042.2c-2.3-5.4-4.9-10.8-7.7-15.9c0.2-0.1,0.4-0.2,0.6-0.3c2.8,5.2,5.4,10.6,7.7,16
				C1705.9,1042.1,1705.7,1042.2,1705.4,1042.2z"/>
			<path class="st2" d="M1713.2,1064.3c-1.6-5.7-3.5-11.3-5.6-16.8c0.2-0.1,0.5-0.2,0.7-0.3c2.1,5.5,4,11.2,5.6,16.9
				C1713.6,1064.2,1713.4,1064.3,1713.2,1064.3z"/>
			<path class="st2" d="M1718,1087.2c-0.8-5.8-2-11.6-3.4-17.4c0.2-0.1,0.5-0.1,0.7-0.2c1.4,5.8,2.5,11.6,3.4,17.4
				C1718.5,1087.1,1718.2,1087.2,1718,1087.2z"/>
			<path class="st2" d="M1719.8,1110.5c-0.1-5.9-0.5-11.8-1.1-17.7c0.2,0,0.5-0.1,0.7-0.1c0.7,5.9,1,11.8,1.1,17.7
				C1720.3,1110.5,1720.1,1110.5,1719.8,1110.5z"/>
			<path class="st2" d="M1718.7,1133.8c0.7-5.9,1-11.8,1.1-17.7c0.2,0,0.5,0,0.7,0c-0.1,5.9-0.5,11.8-1.2,17.7
				C1719.1,1133.9,1718.9,1133.9,1718.7,1133.8z"/>
			<path class="st2" d="M1714.5,1156.9c1.4-5.7,2.6-11.5,3.4-17.4c0.2,0,0.5,0.1,0.7,0.1c-0.9,5.9-2,11.7-3.4,17.4
				C1715,1157,1714.8,1156.9,1714.5,1156.9z"/>
			<path class="st2" d="M1707.5,1179.1c2.1-5.5,4-11.1,5.6-16.8c0.2,0.1,0.5,0.1,0.7,0.2c-1.6,5.7-3.5,11.3-5.6,16.9
				C1707.9,1179.3,1707.7,1179.2,1707.5,1179.1z"/>
			<path class="st2" d="M1697.6,1200.3c2.8-5.2,5.4-10.5,7.7-15.9c0.2,0.1,0.4,0.2,0.7,0.3c-2.3,5.5-4.9,10.8-7.7,16
				C1698.1,1200.6,1697.9,1200.5,1697.6,1200.3z"/>
			<path class="st2" d="M1685.2,1220.1c3.5-4.8,6.7-9.7,9.7-14.8c0.2,0.1,0.4,0.2,0.6,0.4c-3,5.1-6.2,10.1-9.7,14.9
				C1685.6,1220.4,1685.4,1220.3,1685.2,1220.1z"/>
			<path class="st2" d="M1461.9,925.9c-34.1,13.8-64.5,37.3-86.4,66.9c-1.1-0.8-2.2-1.6-3.3-2.4c22.4-30.2,53.3-54.1,88.2-68.2
				C1460.9,923.3,1461.4,924.6,1461.9,925.9z"/>
			<path class="st2" d="M1579.4,915.4c-36-7.6-74.3-5-109,7.2c-0.5-1.3-0.9-2.5-1.4-3.8c35.4-12.5,74.5-15.1,111.2-7.4
				C1579.9,912.8,1579.7,914.1,1579.4,915.4z"/>
		</g>
	</g>
	<g class="st3">
		
			<radialGradient id="SVGID_8_" cx="1767.9076" cy="1788.0415" r="268.6728" gradientTransform="matrix(0.6264 0.7795 -0.7795 0.6264 1822.4402 -1384.8588)" gradientUnits="userSpaceOnUse">
			<stop  offset="0.4784" style="stop-color:#FFFFFF"/>
			<stop  offset="0.5233" style="stop-color:#F7F7F7"/>
			<stop  offset="0.5921" style="stop-color:#E2E2E2"/>
			<stop  offset="0.6763" style="stop-color:#BFBFBF"/>
			<stop  offset="0.7728" style="stop-color:#8E8E8E"/>
			<stop  offset="0.8795" style="stop-color:#505050"/>
			<stop  offset="0.9933" style="stop-color:#050505"/>
			<stop  offset="1" style="stop-color:#000000"/>
		</radialGradient>
		<path class="st12" d="M1682.3,995.8c-64.9-80.7-182.9-93.6-263.7-28.7c-80.7,64.9-93.6,182.9-28.7,263.7
			c64.9,80.7,182.9,93.6,263.7,28.7C1734.3,1194.6,1747.2,1076.5,1682.3,995.8z M1566.8,1218c-13.6,5.1-27.7,6.6-42.4,4.5
			c-28.4-3.1-56.9-18.7-74.7-40.9c-18.9-23.5-25.8-52.3-23.9-81.8c1.9-29.6,19.3-55.7,40.9-74.7c11.6-10.1,24.7-16.5,39.4-19.4
			c13.6-5.1,27.7-6.6,42.3-4.5c28.4,3.1,56.9,18.7,74.7,40.9c18.9,23.5,25.8,52.3,23.9,81.8c-1.9,29.6-19.3,55.7-40.9,74.7
			C1594.6,1208.7,1581.5,1215.2,1566.8,1218z"/>
		
			<radialGradient id="SVGID_9_" cx="1767.9076" cy="1788.0415" r="268.6728" gradientTransform="matrix(0.6264 0.7795 -0.7795 0.6264 1822.4402 -1384.8588)" gradientUnits="userSpaceOnUse">
			<stop  offset="0.4784" style="stop-color:#FFFFFF"/>
			<stop  offset="0.5233" style="stop-color:#F7F7F7"/>
			<stop  offset="0.5921" style="stop-color:#E2E2E2"/>
			<stop  offset="0.6763" style="stop-color:#BFBFBF"/>
			<stop  offset="0.7728" style="stop-color:#8E8E8E"/>
			<stop  offset="0.8795" style="stop-color:#505050"/>
			<stop  offset="0.9933" style="stop-color:#050505"/>
			<stop  offset="1" style="stop-color:#000000"/>
		</radialGradient>
		<path class="st13" d="M1682.3,995.8c-64.9-80.7-182.9-93.6-263.7-28.7c-80.7,64.9-93.6,182.9-28.7,263.7
			c64.9,80.7,182.9,93.6,263.7,28.7C1734.3,1194.6,1747.2,1076.5,1682.3,995.8z M1566.8,1218c-13.6,5.1-27.7,6.6-42.4,4.5
			c-28.4-3.1-56.9-18.7-74.7-40.9c-18.9-23.5-25.8-52.3-23.9-81.8c1.9-29.6,19.3-55.7,40.9-74.7c11.6-10.1,24.7-16.5,39.4-19.4
			c13.6-5.1,27.7-6.6,42.3-4.5c28.4,3.1,56.9,18.7,74.7,40.9c18.9,23.5,25.8,52.3,23.9,81.8c-1.9,29.6-19.3,55.7-40.9,74.7
			C1594.6,1208.7,1581.5,1215.2,1566.8,1218z"/>
		<path class="st6" d="M1721.8,964c-82.4-102.6-232.4-118.9-335-36.5c-102.6,82.4-118.9,232.4-36.5,335
			c82.4,102.6,232.4,118.9,335,36.5C1787.9,1216.5,1804.2,1066.6,1721.8,964z M1389.9,1230.7c-64.9-80.7-52-198.8,28.7-263.7
			c80.7-64.9,198.8-52,263.7,28.7c64.9,80.7,52,198.8-28.7,263.7C1572.8,1324.3,1454.8,1311.5,1389.9,1230.7z"/>
		
			<radialGradient id="SVGID_10_" cx="1767.9072" cy="1788.0419" r="276.2144" gradientTransform="matrix(0.6264 0.7795 -0.7795 0.6264 1822.4402 -1384.8588)" gradientUnits="userSpaceOnUse">
			<stop  offset="0.3608" style="stop-color:#FFFFFF"/>
			<stop  offset="0.3974" style="stop-color:#FAFAFA"/>
			<stop  offset="0.4425" style="stop-color:#EBEBEB"/>
			<stop  offset="0.4922" style="stop-color:#D2D2D2"/>
			<stop  offset="0.545" style="stop-color:#AFAFAF"/>
			<stop  offset="0.6004" style="stop-color:#828282"/>
			<stop  offset="0.658" style="stop-color:#4B4B4B"/>
			<stop  offset="0.7162" style="stop-color:#0B0B0B"/>
			<stop  offset="0.7255" style="stop-color:#000000"/>
			<stop  offset="0.7613" style="stop-color:#323232"/>
			<stop  offset="0.8101" style="stop-color:#6F6F6F"/>
			<stop  offset="0.8569" style="stop-color:#A3A3A3"/>
			<stop  offset="0.9006" style="stop-color:#CBCBCB"/>
			<stop  offset="0.9403" style="stop-color:#E7E7E7"/>
			<stop  offset="0.9747" style="stop-color:#F9F9F9"/>
			<stop  offset="1" style="stop-color:#FFFFFF"/>
		</radialGradient>
		<path class="st14" d="M1751.4,940.2c-95.6-118.9-269.4-137.8-388.3-42.3s-137.8,269.4-42.3,388.3
			c95.6,118.9,269.4,137.8,388.3,42.3S1846.9,1059.1,1751.4,940.2z M1350.4,1262.5c-82.4-102.6-66.1-252.5,36.5-335
			c102.6-82.4,252.5-66.1,335,36.5c82.4,102.6,66.1,252.5-36.5,335C1582.8,1381.4,1432.8,1365.1,1350.4,1262.5z"/>
	</g>
</g>
<g>
	<radialGradient id="SVGID_11_" cx="1538.0596" cy="1110.0571" r="405.9398" gradientUnits="userSpaceOnUse">
		<stop  offset="0" style="stop-color:#000000"/>
		<stop  offset="0.6471" style="stop-color:#FFFFFF"/>
	</radialGradient>
	<circle class="st15" cx="1536.6" cy="1112.5" r="379.6"/>
	<radialGradient id="SVGID_12_" cx="1782.5624" cy="833.1857" r="1116.6577" gradientUnits="userSpaceOnUse">
		<stop  offset="0" style="stop-color:#FFFFFF"/>
		<stop  offset="0.256" style="stop-color:#FDFDFD"/>
		<stop  offset="0.3933" style="stop-color:#F5F5F5"/>
		<stop  offset="0.5025" style="stop-color:#E7E7E7"/>
		<stop  offset="0.5969" style="stop-color:#D4D4D4"/>
		<stop  offset="0.6818" style="stop-color:#BBBBBB"/>
		<stop  offset="0.7598" style="stop-color:#9C9C9C"/>
		<stop  offset="0.8327" style="stop-color:#777777"/>
		<stop  offset="0.9014" style="stop-color:#4D4D4D"/>
		<stop  offset="0.9645" style="stop-color:#1E1E1E"/>
		<stop  offset="1" style="stop-color:#000000"/>
	</radialGradient>
	<circle class="st16" cx="1536.6" cy="1112.5" r="234.8"/>
	<circle class="st6" cx="1536.6" cy="1112.5" r="223.3"/>
	
		<radialGradient id="SVGID_13_" cx="1887.1472" cy="380.7935" r="1059.4694" gradientTransform="matrix(-1 0 0 -1 3190.3877 1758.3944)" gradientUnits="userSpaceOnUse">
		<stop  offset="0" style="stop-color:#FFFFFF"/>
		<stop  offset="0.256" style="stop-color:#FDFDFD"/>
		<stop  offset="0.3933" style="stop-color:#F5F5F5"/>
		<stop  offset="0.5025" style="stop-color:#E7E7E7"/>
		<stop  offset="0.5969" style="stop-color:#D4D4D4"/>
		<stop  offset="0.6818" style="stop-color:#BBBBBB"/>
		<stop  offset="0.7598" style="stop-color:#9C9C9C"/>
		<stop  offset="0.8327" style="stop-color:#777777"/>
		<stop  offset="0.9014" style="stop-color:#4D4D4D"/>
		<stop  offset="0.9645" style="stop-color:#1E1E1E"/>
		<stop  offset="1" style="stop-color:#000000"/>
	</radialGradient>
	<circle class="st17" cx="1536.6" cy="1112.5" r="222.8"/>
</g>
</svg>
